<?xml version="1.0" encoding="UTF-8" standalone="no"?>
<svg
   width="600"
   height="400"
   viewBox="0 0 2400 1600"
   version="1.1"
   id="svg127"
   sodipodi:docname="geotherm-chisquare.svg"
   inkscape:version="1.3 (0e150ed6c4, 2023-07-21)"
   xmlns:inkscape="http://www.inkscape.org/namespaces/inkscape"
   xmlns:sodipodi="http://sodipodi.sourceforge.net/DTD/sodipodi-0.dtd"
   xmlns="http://www.w3.org/2000/svg"
   xmlns:svg="http://www.w3.org/2000/svg">
  <sodipodi:namedview
     id="namedview127"
     pagecolor="#ffffff"
     bordercolor="#666666"
     borderopacity="1.0"
     inkscape:showpageshadow="2"
     inkscape:pageopacity="0.0"
     inkscape:pagecheckerboard="0"
     inkscape:deskcolor="#d1d1d1"
     inkscape:zoom="1.6216667"
     inkscape:cx="300"
     inkscape:cy="199.79445"
     inkscape:window-width="1782"
     inkscape:window-height="2134"
     inkscape:window-x="1028"
     inkscape:window-y="24"
     inkscape:window-maximized="0"
     inkscape:current-layer="svg127" />
  <defs
     id="defs1">
    <clipPath
       id="clip310">
      <rect
         x="0"
         y="0"
         width="2400"
         height="1600"
         id="rect1" />
    </clipPath>
  </defs>
  <defs
     id="defs2">
    <clipPath
       id="clip311">
      <rect
         x="480"
         y="0"
         width="1681"
         height="1600"
         id="rect2" />
    </clipPath>
  </defs>
  <defs
     id="defs3">
    <clipPath
       id="clip312">
      <rect
         x="339"
         y="47"
         width="2014"
         height="1377"
         id="rect3" />
    </clipPath>
  </defs>
  <polyline
     clip-path="url(#clip312)"
     style="stroke:#000000; stroke-linecap:round; stroke-linejoin:round; stroke-width:2; stroke-opacity:0.1; fill:none"
     points="620.035,1423.18 620.035,47.2441 "
     id="polyline3" />
  <polyline
     clip-path="url(#clip312)"
     style="stroke:#000000; stroke-linecap:round; stroke-linejoin:round; stroke-width:2; stroke-opacity:0.1; fill:none"
     points="1178.62,1423.18 1178.62,47.2441 "
     id="polyline4" />
  <polyline
     clip-path="url(#clip312)"
     style="stroke:#000000; stroke-linecap:round; stroke-linejoin:round; stroke-width:2; stroke-opacity:0.1; fill:none"
     points="1737.2,1423.18 1737.2,47.2441 "
     id="polyline5" />
  <polyline
     clip-path="url(#clip312)"
     style="stroke:#000000; stroke-linecap:round; stroke-linejoin:round; stroke-width:2; stroke-opacity:0.1; fill:none"
     points="2295.78,1423.18 2295.78,47.2441 "
     id="polyline6" />
  <polyline
     clip-path="url(#clip310)"
     style="stroke:#000000; stroke-linecap:round; stroke-linejoin:round; stroke-width:4; stroke-opacity:1; fill:none"
     points="339.627,1423.18 2352.76,1423.18 "
     id="polyline7" />
  <polyline
     clip-path="url(#clip310)"
     style="stroke:#000000; stroke-linecap:round; stroke-linejoin:round; stroke-width:4; stroke-opacity:1; fill:none"
     points="620.035,1423.18 620.035,1404.28 "
     id="polyline8" />
  <polyline
     clip-path="url(#clip310)"
     style="stroke:#000000; stroke-linecap:round; stroke-linejoin:round; stroke-width:4; stroke-opacity:1; fill:none"
     points="1178.62,1423.18 1178.62,1404.28 "
     id="polyline9" />
  <polyline
     clip-path="url(#clip310)"
     style="stroke:#000000; stroke-linecap:round; stroke-linejoin:round; stroke-width:4; stroke-opacity:1; fill:none"
     points="1737.2,1423.18 1737.2,1404.28 "
     id="polyline10" />
  <polyline
     clip-path="url(#clip310)"
     style="stroke:#000000; stroke-linecap:round; stroke-linejoin:round; stroke-width:4; stroke-opacity:1; fill:none"
     points="2295.78,1423.18 2295.78,1404.28 "
     id="polyline11" />
  <path
     clip-path="url(#clip310)"
     d="M609.375 1466.95 Q612.732 1467.66 614.607 1469.93 Q616.505 1472.2 616.505 1475.53 Q616.505 1480.65 612.986 1483.45 Q609.468 1486.25 602.986 1486.25 Q600.811 1486.25 598.496 1485.81 Q596.204 1485.39 593.75 1484.54 L593.75 1480.02 Q595.695 1481.16 598.01 1481.74 Q600.324 1482.32 602.848 1482.32 Q607.246 1482.32 609.537 1480.58 Q611.852 1478.84 611.852 1475.53 Q611.852 1472.48 609.699 1470.77 Q607.57 1469.03 603.75 1469.03 L599.723 1469.03 L599.723 1465.19 L603.936 1465.19 Q607.385 1465.19 609.213 1463.82 Q611.042 1462.43 611.042 1459.84 Q611.042 1457.18 609.144 1455.77 Q607.269 1454.33 603.75 1454.33 Q601.829 1454.33 599.63 1454.75 Q597.431 1455.16 594.792 1456.04 L594.792 1451.88 Q597.454 1451.14 599.769 1450.77 Q602.107 1450.39 604.167 1450.39 Q609.491 1450.39 612.593 1452.83 Q615.695 1455.23 615.695 1459.35 Q615.695 1462.22 614.051 1464.21 Q612.408 1466.18 609.375 1466.95 Z"
     fill="#000000"
     fill-rule="nonzero"
     fill-opacity="1"
     id="path11" />
  <path
     clip-path="url(#clip310)"
     d="M625.417 1451.02 L643.773 1451.02 L643.773 1454.96 L629.699 1454.96 L629.699 1463.43 Q630.718 1463.08 631.736 1462.92 Q632.755 1462.73 633.773 1462.73 Q639.56 1462.73 642.94 1465.9 Q646.32 1469.08 646.32 1474.49 Q646.32 1480.07 642.847 1483.17 Q639.375 1486.25 633.056 1486.25 Q630.88 1486.25 628.611 1485.88 Q626.366 1485.51 623.959 1484.77 L623.959 1480.07 Q626.042 1481.2 628.264 1481.76 Q630.486 1482.32 632.963 1482.32 Q636.968 1482.32 639.306 1480.21 Q641.644 1478.1 641.644 1474.49 Q641.644 1470.88 639.306 1468.77 Q636.968 1466.67 632.963 1466.67 Q631.088 1466.67 629.213 1467.08 Q627.361 1467.5 625.417 1468.38 L625.417 1451.02 Z"
     fill="#000000"
     fill-rule="nonzero"
     fill-opacity="1"
     id="path12" />
  <path
     clip-path="url(#clip310)"
     d="M1166.79 1455.09 L1154.98 1473.54 L1166.79 1473.54 L1166.79 1455.09 M1165.56 1451.02 L1171.44 1451.02 L1171.44 1473.54 L1176.37 1473.54 L1176.37 1477.43 L1171.44 1477.43 L1171.44 1485.58 L1166.79 1485.58 L1166.79 1477.43 L1151.19 1477.43 L1151.19 1472.92 L1165.56 1451.02 Z"
     fill="#000000"
     fill-rule="nonzero"
     fill-opacity="1"
     id="path13" />
  <path
     clip-path="url(#clip310)"
     d="M1194.1 1454.1 Q1190.49 1454.1 1188.66 1457.66 Q1186.86 1461.2 1186.86 1468.33 Q1186.86 1475.44 1188.66 1479.01 Q1190.49 1482.55 1194.1 1482.55 Q1197.74 1482.55 1199.54 1479.01 Q1201.37 1475.44 1201.37 1468.33 Q1201.37 1461.2 1199.54 1457.66 Q1197.74 1454.1 1194.1 1454.1 M1194.1 1450.39 Q1199.91 1450.39 1202.97 1455 Q1206.05 1459.58 1206.05 1468.33 Q1206.05 1477.06 1202.97 1481.67 Q1199.91 1486.25 1194.1 1486.25 Q1188.29 1486.25 1185.21 1481.67 Q1182.16 1477.06 1182.16 1468.33 Q1182.16 1459.58 1185.21 1455 Q1188.29 1450.39 1194.1 1450.39 Z"
     fill="#000000"
     fill-rule="nonzero"
     fill-opacity="1"
     id="path14" />
  <path
     clip-path="url(#clip310)"
     d="M1725.87 1455.09 L1714.06 1473.54 L1725.87 1473.54 L1725.87 1455.09 M1724.64 1451.02 L1730.52 1451.02 L1730.52 1473.54 L1735.45 1473.54 L1735.45 1477.43 L1730.52 1477.43 L1730.52 1485.58 L1725.87 1485.58 L1725.87 1477.43 L1710.27 1477.43 L1710.27 1472.92 L1724.64 1451.02 Z"
     fill="#000000"
     fill-rule="nonzero"
     fill-opacity="1"
     id="path15" />
  <path
     clip-path="url(#clip310)"
     d="M1743.23 1451.02 L1761.59 1451.02 L1761.59 1454.96 L1747.51 1454.96 L1747.51 1463.43 Q1748.53 1463.08 1749.55 1462.92 Q1750.57 1462.73 1751.59 1462.73 Q1757.37 1462.73 1760.75 1465.9 Q1764.13 1469.08 1764.13 1474.49 Q1764.13 1480.07 1760.66 1483.17 Q1757.19 1486.25 1750.87 1486.25 Q1748.69 1486.25 1746.42 1485.88 Q1744.18 1485.51 1741.77 1484.77 L1741.77 1480.07 Q1743.85 1481.2 1746.08 1481.76 Q1748.3 1482.32 1750.78 1482.32 Q1754.78 1482.32 1757.12 1480.21 Q1759.46 1478.1 1759.46 1474.49 Q1759.46 1470.88 1757.12 1468.77 Q1754.78 1466.67 1750.78 1466.67 Q1748.9 1466.67 1747.03 1467.08 Q1745.17 1467.5 1743.23 1468.38 L1743.23 1451.02 Z"
     fill="#000000"
     fill-rule="nonzero"
     fill-opacity="1"
     id="path16" />
  <path
     clip-path="url(#clip310)"
     d="M2270.48 1451.02 L2288.84 1451.02 L2288.84 1454.96 L2274.76 1454.96 L2274.76 1463.43 Q2275.78 1463.08 2276.8 1462.92 Q2277.82 1462.73 2278.84 1462.73 Q2284.62 1462.73 2288 1465.9 Q2291.38 1469.08 2291.38 1474.49 Q2291.38 1480.07 2287.91 1483.17 Q2284.44 1486.25 2278.12 1486.25 Q2275.94 1486.25 2273.67 1485.88 Q2271.43 1485.51 2269.02 1484.77 L2269.02 1480.07 Q2271.1 1481.2 2273.33 1481.76 Q2275.55 1482.32 2278.03 1482.32 Q2282.03 1482.32 2284.37 1480.21 Q2286.71 1478.1 2286.71 1474.49 Q2286.71 1470.88 2284.37 1468.77 Q2282.03 1466.67 2278.03 1466.67 Q2276.15 1466.67 2274.28 1467.08 Q2272.42 1467.5 2270.48 1468.38 L2270.48 1451.02 Z"
     fill="#000000"
     fill-rule="nonzero"
     fill-opacity="1"
     id="path17" />
  <path
     clip-path="url(#clip310)"
     d="M2310.6 1454.1 Q2306.98 1454.1 2305.16 1457.66 Q2303.35 1461.2 2303.35 1468.33 Q2303.35 1475.44 2305.16 1479.01 Q2306.98 1482.55 2310.6 1482.55 Q2314.23 1482.55 2316.04 1479.01 Q2317.86 1475.44 2317.86 1468.33 Q2317.86 1461.2 2316.04 1457.66 Q2314.23 1454.1 2310.6 1454.1 M2310.6 1450.39 Q2316.41 1450.39 2319.46 1455 Q2322.54 1459.58 2322.54 1468.33 Q2322.54 1477.06 2319.46 1481.67 Q2316.41 1486.25 2310.6 1486.25 Q2304.79 1486.25 2301.71 1481.67 Q2298.65 1477.06 2298.65 1468.33 Q2298.65 1459.58 2301.71 1455 Q2304.79 1450.39 2310.6 1450.39 Z"
     fill="#000000"
     fill-rule="nonzero"
     fill-opacity="1"
     id="path18" />
  <path
     clip-path="url(#clip310)"
     d="M1245.6 1509.56 L1236.49 1546.24 Q1236.23 1547.4 1236.23 1547.69 Q1236.23 1548.08 1236.33 1548.24 Q1236.46 1548.43 1237.16 1548.6 Q1237.91 1548.76 1239.39 1548.76 Q1239.93 1548.76 1240.13 1548.76 Q1240.32 1548.76 1240.61 1548.82 Q1240.9 1548.89 1241 1549.05 Q1241.09 1549.21 1241.09 1549.47 Q1241.09 1550.79 1239.93 1550.79 Q1238.84 1550.79 1236.55 1550.69 Q1234.27 1550.59 1233.14 1550.59 Q1232.04 1550.59 1229.82 1550.69 Q1227.6 1550.79 1226.54 1550.79 Q1226.15 1550.79 1225.92 1550.59 Q1225.7 1550.43 1225.7 1550.24 L1225.67 1550.08 Q1225.67 1549.18 1226.02 1548.95 Q1226.38 1548.76 1227.18 1548.76 Q1229.95 1548.72 1230.76 1548.34 Q1231.56 1547.95 1231.95 1546.57 L1234.91 1534.78 Q1230.95 1538.74 1227.12 1538.74 Q1223.41 1538.74 1220.9 1535.84 Q1218.42 1532.91 1218.42 1528.18 Q1218.42 1524.67 1219.81 1521.12 Q1221.22 1517.58 1223.41 1514.91 Q1225.64 1512.24 1228.53 1510.56 Q1231.43 1508.85 1234.3 1508.85 Q1236.13 1508.85 1237.78 1509.92 Q1239.45 1510.98 1240.45 1513.46 Q1241.29 1512.04 1242.83 1510.5 Q1244.38 1508.92 1244.93 1508.92 Q1245.25 1508.92 1245.41 1509.14 Q1245.6 1509.34 1245.6 1509.56 M1239.52 1516.1 Q1239.52 1515.78 1239.26 1514.97 Q1239.03 1514.17 1238.52 1513.07 Q1238.03 1511.95 1236.91 1511.14 Q1235.78 1510.3 1234.3 1510.3 Q1232.17 1510.3 1229.89 1512.36 Q1227.63 1514.39 1226.15 1517.94 Q1225.22 1520.25 1224.15 1524.57 Q1223.09 1528.89 1223.09 1531.08 Q1223.09 1531.59 1223.12 1532.17 Q1223.19 1532.75 1223.45 1533.72 Q1223.7 1534.68 1224.09 1535.42 Q1224.51 1536.16 1225.35 1536.71 Q1226.18 1537.26 1227.31 1537.26 Q1229.76 1537.26 1232.21 1535.17 Q1234.65 1533.07 1235.68 1531.2 Q1235.81 1531.01 1237.65 1523.7 Q1239.52 1516.39 1239.52 1516.1 Z"
     fill="#000000"
     fill-rule="nonzero"
     fill-opacity="1"
     id="path19" />
  <path
     clip-path="url(#clip310)"
     d="M1252.38 1554.17 Q1252.38 1547.38 1254.1 1543.68 Q1256.49 1538.18 1262.12 1538.18 Q1263.32 1538.18 1264.56 1538.52 Q1265.82 1538.84 1267.4 1540.08 Q1269 1541.32 1269.97 1543.35 Q1271.82 1547.27 1271.82 1554.17 Q1271.82 1560.91 1270.1 1564.58 Q1267.6 1569.95 1262.08 1569.95 Q1260 1569.95 1257.88 1568.89 Q1255.79 1567.83 1254.46 1565.28 Q1252.38 1561.47 1252.38 1554.17 M1256.22 1553.6 Q1256.22 1560.57 1256.71 1563.34 Q1257.27 1566.34 1258.81 1567.65 Q1260.36 1568.93 1262.08 1568.93 Q1263.93 1568.93 1265.46 1567.56 Q1267.01 1566.16 1267.49 1563.16 Q1268.01 1560.21 1267.98 1553.6 Q1267.98 1547.18 1267.53 1544.61 Q1266.92 1541.61 1265.3 1540.41 Q1263.7 1539.2 1262.08 1539.2 Q1261.47 1539.2 1260.81 1539.38 Q1260.18 1539.56 1259.26 1540.08 Q1258.33 1540.59 1257.61 1541.88 Q1256.91 1543.16 1256.58 1545.1 Q1256.22 1547.61 1256.22 1553.6 Z"
     fill="#000000"
     fill-rule="nonzero"
     fill-opacity="1"
     id="path20" />
  <path
     clip-path="url(#clip310)"
     d="M1301.32 1502.35 L1307.53 1502.35 L1318.67 1532.27 L1329.81 1502.35 L1336.02 1502.35 L1322.65 1538 L1314.69 1538 L1301.32 1502.35 Z"
     fill="#000000"
     fill-rule="nonzero"
     fill-opacity="1"
     id="path21" />
  <path
     clip-path="url(#clip310)"
     d="M1360.3 1520.08 Q1353.2 1520.08 1350.47 1521.7 Q1347.73 1523.33 1347.73 1527.24 Q1347.73 1530.36 1349.77 1532.21 Q1351.84 1534.02 1355.37 1534.02 Q1360.24 1534.02 1363.17 1530.58 Q1366.13 1527.11 1366.13 1521.39 L1366.13 1520.08 L1360.3 1520.08 M1371.98 1517.66 L1371.98 1538 L1366.13 1538 L1366.13 1532.59 Q1364.12 1535.84 1361.13 1537.4 Q1358.14 1538.92 1353.81 1538.92 Q1348.33 1538.92 1345.09 1535.87 Q1341.87 1532.78 1341.87 1527.62 Q1341.87 1521.61 1345.88 1518.55 Q1349.93 1515.5 1357.91 1515.5 L1366.13 1515.5 L1366.13 1514.92 Q1366.13 1510.88 1363.45 1508.69 Q1360.81 1506.46 1356.01 1506.46 Q1352.95 1506.46 1350.05 1507.19 Q1347.16 1507.92 1344.48 1509.39 L1344.48 1503.98 Q1347.7 1502.73 1350.72 1502.13 Q1353.75 1501.49 1356.61 1501.49 Q1364.34 1501.49 1368.16 1505.5 Q1371.98 1509.51 1371.98 1517.66 Z"
     fill="#000000"
     fill-rule="nonzero"
     fill-opacity="1"
     id="path22" />
  <path
     clip-path="url(#clip310)"
     d="M1384.05 1488.47 L1389.9 1488.47 L1389.9 1538 L1384.05 1538 L1384.05 1488.47 Z"
     fill="#000000"
     fill-rule="nonzero"
     fill-opacity="1"
     id="path23" />
  <path
     clip-path="url(#clip310)"
     d="M1401.55 1523.93 L1401.55 1502.35 L1407.41 1502.35 L1407.41 1523.71 Q1407.41 1528.77 1409.38 1531.32 Q1411.36 1533.83 1415.3 1533.83 Q1420.04 1533.83 1422.78 1530.81 Q1425.55 1527.78 1425.55 1522.56 L1425.55 1502.35 L1431.41 1502.35 L1431.41 1538 L1425.55 1538 L1425.55 1532.53 Q1423.42 1535.77 1420.59 1537.36 Q1417.78 1538.92 1414.06 1538.92 Q1407.92 1538.92 1404.73 1535.1 Q1401.55 1531.28 1401.55 1523.93 M1416.29 1501.49 L1416.29 1501.49 Z"
     fill="#000000"
     fill-rule="nonzero"
     fill-opacity="1"
     id="path24" />
  <path
     clip-path="url(#clip310)"
     d="M1473.96 1518.71 L1473.96 1521.58 L1447.03 1521.58 Q1447.42 1527.62 1450.66 1530.81 Q1453.94 1533.96 1459.77 1533.96 Q1463.14 1533.96 1466.29 1533.13 Q1469.47 1532.3 1472.59 1530.65 L1472.59 1536.19 Q1469.44 1537.52 1466.13 1538.22 Q1462.82 1538.92 1459.42 1538.92 Q1450.89 1538.92 1445.89 1533.96 Q1440.92 1528.99 1440.92 1520.53 Q1440.92 1511.77 1445.63 1506.65 Q1450.38 1501.49 1458.4 1501.49 Q1465.59 1501.49 1469.76 1506.14 Q1473.96 1510.75 1473.96 1518.71 M1468.11 1516.99 Q1468.04 1512.19 1465.4 1509.32 Q1462.79 1506.46 1458.46 1506.46 Q1453.56 1506.46 1450.6 1509.23 Q1447.67 1512 1447.23 1517.02 L1468.11 1516.99 Z"
     fill="#000000"
     fill-rule="nonzero"
     fill-opacity="1"
     id="path25" />
  <polyline
     clip-path="url(#clip312)"
     style="stroke:#000000; stroke-linecap:round; stroke-linejoin:round; stroke-width:2; stroke-opacity:0.1; fill:none"
     points="339.627,1153.28 2352.76,1153.28 "
     id="polyline25" />
  <polyline
     clip-path="url(#clip312)"
     style="stroke:#000000; stroke-linecap:round; stroke-linejoin:round; stroke-width:2; stroke-opacity:0.1; fill:none"
     points="339.627,791.091 2352.76,791.091 "
     id="polyline26" />
  <polyline
     clip-path="url(#clip312)"
     style="stroke:#000000; stroke-linecap:round; stroke-linejoin:round; stroke-width:2; stroke-opacity:0.1; fill:none"
     points="339.627,428.904 2352.76,428.904 "
     id="polyline27" />
  <polyline
     clip-path="url(#clip312)"
     style="stroke:#000000; stroke-linecap:round; stroke-linejoin:round; stroke-width:2; stroke-opacity:0.1; fill:none"
     points="339.627,66.716 2352.76,66.716 "
     id="polyline28" />
  <polyline
     clip-path="url(#clip310)"
     style="stroke:#000000; stroke-linecap:round; stroke-linejoin:round; stroke-width:4; stroke-opacity:1; fill:none"
     points="339.627,1423.18 339.627,47.2441 "
     id="polyline29" />
  <polyline
     clip-path="url(#clip310)"
     style="stroke:#000000; stroke-linecap:round; stroke-linejoin:round; stroke-width:4; stroke-opacity:1; fill:none"
     points="339.627,1153.28 358.525,1153.28 "
     id="polyline30" />
  <polyline
     clip-path="url(#clip310)"
     style="stroke:#000000; stroke-linecap:round; stroke-linejoin:round; stroke-width:4; stroke-opacity:1; fill:none"
     points="339.627,791.091 358.525,791.091 "
     id="polyline31" />
  <polyline
     clip-path="url(#clip310)"
     style="stroke:#000000; stroke-linecap:round; stroke-linejoin:round; stroke-width:4; stroke-opacity:1; fill:none"
     points="339.627,428.904 358.525,428.904 "
     id="polyline32" />
  <polyline
     clip-path="url(#clip310)"
     style="stroke:#000000; stroke-linecap:round; stroke-linejoin:round; stroke-width:4; stroke-opacity:1; fill:none"
     points="339.627,66.716 358.525,66.716 "
     id="polyline33" />
  <path
     clip-path="url(#clip310)"
     d="M117.825 1173.07 L125.464 1173.07 L125.464 1146.71 L117.154 1148.37 L117.154 1144.11 L125.418 1142.45 L130.093 1142.45 L130.093 1173.07 L137.732 1173.07 L137.732 1177.01 L117.825 1177.01 L117.825 1173.07 Z"
     fill="#000000"
     fill-rule="nonzero"
     fill-opacity="1"
     id="path33" />
  <path
     clip-path="url(#clip310)"
     d="M147.177 1171.13 L152.061 1171.13 L152.061 1177.01 L147.177 1177.01 L147.177 1171.13 Z"
     fill="#000000"
     fill-rule="nonzero"
     fill-opacity="1"
     id="path34" />
  <path
     clip-path="url(#clip310)"
     d="M172.246 1145.53 Q168.635 1145.53 166.806 1149.09 Q165.001 1152.63 165.001 1159.76 Q165.001 1166.87 166.806 1170.43 Q168.635 1173.97 172.246 1173.97 Q175.88 1173.97 177.686 1170.43 Q179.514 1166.87 179.514 1159.76 Q179.514 1152.63 177.686 1149.09 Q175.88 1145.53 172.246 1145.53 M172.246 1141.82 Q178.056 1141.82 181.112 1146.43 Q184.19 1151.01 184.19 1159.76 Q184.19 1168.49 181.112 1173.09 Q178.056 1177.68 172.246 1177.68 Q166.436 1177.68 163.357 1173.09 Q160.302 1168.49 160.302 1159.76 Q160.302 1151.01 163.357 1146.43 Q166.436 1141.82 172.246 1141.82 Z"
     fill="#000000"
     fill-rule="nonzero"
     fill-opacity="1"
     id="path35" />
  <path
     clip-path="url(#clip310)"
     d="M220.579 1151.54 L210 1162.17 L220.579 1172.75 L217.824 1175.55 L207.199 1164.92 L196.575 1175.55 L193.843 1172.75 L204.399 1162.17 L193.843 1151.54 L196.575 1148.74 L207.199 1159.37 L217.824 1148.74 L220.579 1151.54 Z"
     fill="#000000"
     fill-rule="nonzero"
     fill-opacity="1"
     id="path36" />
  <path
     clip-path="url(#clip310)"
     d="M232.94 1173.07 L240.579 1173.07 L240.579 1146.71 L232.269 1148.37 L232.269 1144.11 L240.533 1142.45 L245.209 1142.45 L245.209 1173.07 L252.847 1173.07 L252.847 1177.01 L232.94 1177.01 L232.94 1173.07 Z"
     fill="#000000"
     fill-rule="nonzero"
     fill-opacity="1"
     id="path37" />
  <path
     clip-path="url(#clip310)"
     d="M272.292 1145.53 Q268.681 1145.53 266.852 1149.09 Q265.046 1152.63 265.046 1159.76 Q265.046 1166.87 266.852 1170.43 Q268.681 1173.97 272.292 1173.97 Q275.926 1173.97 277.732 1170.43 Q279.56 1166.87 279.56 1159.76 Q279.56 1152.63 277.732 1149.09 Q275.926 1145.53 272.292 1145.53 M272.292 1141.82 Q278.102 1141.82 281.157 1146.43 Q284.236 1151.01 284.236 1159.76 Q284.236 1168.49 281.157 1173.09 Q278.102 1177.68 272.292 1177.68 Q266.482 1177.68 263.403 1173.09 Q260.347 1168.49 260.347 1159.76 Q260.347 1151.01 263.403 1146.43 Q266.482 1141.82 272.292 1141.82 Z"
     fill="#000000"
     fill-rule="nonzero"
     fill-opacity="1"
     id="path38" />
  <path
     clip-path="url(#clip310)"
     d="M294.261 1134.04 Q291.703 1134.04 290.198 1135.79 Q288.712 1137.54 288.712 1140.59 Q288.712 1143.62 290.198 1145.38 Q291.703 1147.13 294.261 1147.13 Q296.818 1147.13 298.304 1145.38 Q299.809 1143.62 299.809 1140.59 Q299.809 1137.54 298.304 1135.79 Q296.818 1134.04 294.261 1134.04 M301.803 1122.14 L301.803 1125.6 Q300.373 1124.92 298.906 1124.56 Q297.458 1124.21 296.029 1124.21 Q292.267 1124.21 290.273 1126.74 Q288.299 1129.28 288.016 1134.42 Q289.126 1132.78 290.8 1131.92 Q292.474 1131.03 294.486 1131.03 Q298.718 1131.03 301.163 1133.61 Q303.627 1136.17 303.627 1140.59 Q303.627 1144.91 301.069 1147.53 Q298.511 1150.14 294.261 1150.14 Q289.389 1150.14 286.813 1146.42 Q284.236 1142.68 284.236 1135.58 Q284.236 1128.93 287.396 1124.98 Q290.556 1121.01 295.878 1121.01 Q297.307 1121.01 298.756 1121.29 Q300.223 1121.57 301.803 1122.14 Z"
     fill="#000000"
     fill-rule="nonzero"
     fill-opacity="1"
     id="path39" />
  <path
     clip-path="url(#clip310)"
     d="M121.043 810.884 L137.362 810.884 L137.362 814.819 L115.418 814.819 L115.418 810.884 Q118.08 808.129 122.663 803.5 Q127.269 798.847 128.45 797.504 Q130.695 794.981 131.575 793.245 Q132.478 791.486 132.478 789.796 Q132.478 787.041 130.533 785.305 Q128.612 783.569 125.51 783.569 Q123.311 783.569 120.857 784.333 Q118.427 785.097 115.649 786.648 L115.649 781.926 Q118.473 780.791 120.927 780.213 Q123.38 779.634 125.418 779.634 Q130.788 779.634 133.982 782.319 Q137.177 785.004 137.177 789.495 Q137.177 791.625 136.367 793.546 Q135.579 795.444 133.473 798.037 Q132.894 798.708 129.792 801.926 Q126.691 805.12 121.043 810.884 Z"
     fill="#000000"
     fill-rule="nonzero"
     fill-opacity="1"
     id="path40" />
  <path
     clip-path="url(#clip310)"
     d="M147.177 808.939 L152.061 808.939 L152.061 814.819 L147.177 814.819 L147.177 808.939 Z"
     fill="#000000"
     fill-rule="nonzero"
     fill-opacity="1"
     id="path41" />
  <path
     clip-path="url(#clip310)"
     d="M172.246 783.338 Q168.635 783.338 166.806 786.903 Q165.001 790.444 165.001 797.574 Q165.001 804.68 166.806 808.245 Q168.635 811.787 172.246 811.787 Q175.88 811.787 177.686 808.245 Q179.514 804.68 179.514 797.574 Q179.514 790.444 177.686 786.903 Q175.88 783.338 172.246 783.338 M172.246 779.634 Q178.056 779.634 181.112 784.241 Q184.19 788.824 184.19 797.574 Q184.19 806.301 181.112 810.907 Q178.056 815.49 172.246 815.49 Q166.436 815.49 163.357 810.907 Q160.302 806.301 160.302 797.574 Q160.302 788.824 163.357 784.241 Q166.436 779.634 172.246 779.634 Z"
     fill="#000000"
     fill-rule="nonzero"
     fill-opacity="1"
     id="path42" />
  <path
     clip-path="url(#clip310)"
     d="M220.579 789.356 L210 799.981 L220.579 810.56 L217.824 813.361 L207.199 802.736 L196.575 813.361 L193.843 810.56 L204.399 799.981 L193.843 789.356 L196.575 786.555 L207.199 797.18 L217.824 786.555 L220.579 789.356 Z"
     fill="#000000"
     fill-rule="nonzero"
     fill-opacity="1"
     id="path43" />
  <path
     clip-path="url(#clip310)"
     d="M232.94 810.884 L240.579 810.884 L240.579 784.518 L232.269 786.185 L232.269 781.926 L240.533 780.259 L245.209 780.259 L245.209 810.884 L252.847 810.884 L252.847 814.819 L232.94 814.819 L232.94 810.884 Z"
     fill="#000000"
     fill-rule="nonzero"
     fill-opacity="1"
     id="path44" />
  <path
     clip-path="url(#clip310)"
     d="M272.292 783.338 Q268.681 783.338 266.852 786.903 Q265.046 790.444 265.046 797.574 Q265.046 804.68 266.852 808.245 Q268.681 811.787 272.292 811.787 Q275.926 811.787 277.732 808.245 Q279.56 804.68 279.56 797.574 Q279.56 790.444 277.732 786.903 Q275.926 783.338 272.292 783.338 M272.292 779.634 Q278.102 779.634 281.157 784.241 Q284.236 788.824 284.236 797.574 Q284.236 806.301 281.157 810.907 Q278.102 815.49 272.292 815.49 Q266.482 815.49 263.403 810.907 Q260.347 806.301 260.347 797.574 Q260.347 788.824 263.403 784.241 Q266.482 779.634 272.292 779.634 Z"
     fill="#000000"
     fill-rule="nonzero"
     fill-opacity="1"
     id="path45" />
  <path
     clip-path="url(#clip310)"
     d="M294.261 771.855 Q291.703 771.855 290.198 773.604 Q288.712 775.353 288.712 778.4 Q288.712 781.428 290.198 783.196 Q291.703 784.945 294.261 784.945 Q296.818 784.945 298.304 783.196 Q299.809 781.428 299.809 778.4 Q299.809 775.353 298.304 773.604 Q296.818 771.855 294.261 771.855 M301.803 759.949 L301.803 763.41 Q300.373 762.733 298.906 762.375 Q297.458 762.018 296.029 762.018 Q292.267 762.018 290.273 764.557 Q288.299 767.096 288.016 772.231 Q289.126 770.594 290.8 769.729 Q292.474 768.845 294.486 768.845 Q298.718 768.845 301.163 771.422 Q303.627 773.98 303.627 778.4 Q303.627 782.726 301.069 785.34 Q298.511 787.954 294.261 787.954 Q289.389 787.954 286.813 784.23 Q284.236 780.487 284.236 773.397 Q284.236 766.739 287.396 762.789 Q290.556 758.821 295.878 758.821 Q297.307 758.821 298.756 759.103 Q300.223 759.385 301.803 759.949 Z"
     fill="#000000"
     fill-rule="nonzero"
     fill-opacity="1"
     id="path46" />
  <path
     clip-path="url(#clip310)"
     d="M131.181 433.997 Q134.538 434.715 136.413 436.983 Q138.311 439.252 138.311 442.585 Q138.311 447.701 134.792 450.502 Q131.274 453.303 124.793 453.303 Q122.617 453.303 120.302 452.863 Q118.01 452.446 115.556 451.59 L115.556 447.076 Q117.501 448.21 119.816 448.789 Q122.13 449.367 124.654 449.367 Q129.052 449.367 131.343 447.631 Q133.658 445.895 133.658 442.585 Q133.658 439.53 131.505 437.817 Q129.376 436.08 125.556 436.08 L121.529 436.08 L121.529 432.238 L125.742 432.238 Q129.191 432.238 131.019 430.872 Q132.848 429.483 132.848 426.891 Q132.848 424.229 130.95 422.817 Q129.075 421.381 125.556 421.381 Q123.635 421.381 121.436 421.798 Q119.237 422.215 116.598 423.094 L116.598 418.928 Q119.26 418.187 121.575 417.817 Q123.913 417.446 125.973 417.446 Q131.297 417.446 134.399 419.877 Q137.501 422.284 137.501 426.405 Q137.501 429.275 135.857 431.266 Q134.214 433.233 131.181 433.997 Z"
     fill="#000000"
     fill-rule="nonzero"
     fill-opacity="1"
     id="path47" />
  <path
     clip-path="url(#clip310)"
     d="M147.177 446.752 L152.061 446.752 L152.061 452.631 L147.177 452.631 L147.177 446.752 Z"
     fill="#000000"
     fill-rule="nonzero"
     fill-opacity="1"
     id="path48" />
  <path
     clip-path="url(#clip310)"
     d="M172.246 421.15 Q168.635 421.15 166.806 424.715 Q165.001 428.256 165.001 435.386 Q165.001 442.492 166.806 446.057 Q168.635 449.599 172.246 449.599 Q175.88 449.599 177.686 446.057 Q179.514 442.492 179.514 435.386 Q179.514 428.256 177.686 424.715 Q175.88 421.15 172.246 421.15 M172.246 417.446 Q178.056 417.446 181.112 422.053 Q184.19 426.636 184.19 435.386 Q184.19 444.113 181.112 448.719 Q178.056 453.303 172.246 453.303 Q166.436 453.303 163.357 448.719 Q160.302 444.113 160.302 435.386 Q160.302 426.636 163.357 422.053 Q166.436 417.446 172.246 417.446 Z"
     fill="#000000"
     fill-rule="nonzero"
     fill-opacity="1"
     id="path49" />
  <path
     clip-path="url(#clip310)"
     d="M220.579 427.168 L210 437.793 L220.579 448.372 L217.824 451.173 L207.199 440.548 L196.575 451.173 L193.843 448.372 L204.399 437.793 L193.843 427.168 L196.575 424.368 L207.199 434.993 L217.824 424.368 L220.579 427.168 Z"
     fill="#000000"
     fill-rule="nonzero"
     fill-opacity="1"
     id="path50" />
  <path
     clip-path="url(#clip310)"
     d="M232.94 448.696 L240.579 448.696 L240.579 422.331 L232.269 423.997 L232.269 419.738 L240.533 418.071 L245.209 418.071 L245.209 448.696 L252.847 448.696 L252.847 452.631 L232.94 452.631 L232.94 448.696 Z"
     fill="#000000"
     fill-rule="nonzero"
     fill-opacity="1"
     id="path51" />
  <path
     clip-path="url(#clip310)"
     d="M272.292 421.15 Q268.681 421.15 266.852 424.715 Q265.046 428.256 265.046 435.386 Q265.046 442.492 266.852 446.057 Q268.681 449.599 272.292 449.599 Q275.926 449.599 277.732 446.057 Q279.56 442.492 279.56 435.386 Q279.56 428.256 277.732 424.715 Q275.926 421.15 272.292 421.15 M272.292 417.446 Q278.102 417.446 281.157 422.053 Q284.236 426.636 284.236 435.386 Q284.236 444.113 281.157 448.719 Q278.102 453.303 272.292 453.303 Q266.482 453.303 263.403 448.719 Q260.347 444.113 260.347 435.386 Q260.347 426.636 263.403 422.053 Q266.482 417.446 272.292 417.446 Z"
     fill="#000000"
     fill-rule="nonzero"
     fill-opacity="1"
     id="path52" />
  <path
     clip-path="url(#clip310)"
     d="M294.261 409.667 Q291.703 409.667 290.198 411.416 Q288.712 413.165 288.712 416.212 Q288.712 419.24 290.198 421.008 Q291.703 422.757 294.261 422.757 Q296.818 422.757 298.304 421.008 Q299.809 419.24 299.809 416.212 Q299.809 413.165 298.304 411.416 Q296.818 409.667 294.261 409.667 M301.803 397.762 L301.803 401.222 Q300.373 400.545 298.906 400.188 Q297.458 399.83 296.029 399.83 Q292.267 399.83 290.273 402.369 Q288.299 404.909 288.016 410.043 Q289.126 408.407 290.8 407.542 Q292.474 406.658 294.486 406.658 Q298.718 406.658 301.163 409.234 Q303.627 411.792 303.627 416.212 Q303.627 420.538 301.069 423.152 Q298.511 425.766 294.261 425.766 Q289.389 425.766 286.813 422.042 Q284.236 418.3 284.236 411.209 Q284.236 404.551 287.396 400.602 Q290.556 396.633 295.878 396.633 Q297.307 396.633 298.756 396.915 Q300.223 397.197 301.803 397.762 Z"
     fill="#000000"
     fill-rule="nonzero"
     fill-opacity="1"
     id="path53" />
  <path
     clip-path="url(#clip310)"
     d="M129.862 59.9576 L118.056 78.4066 L129.862 78.4066 L129.862 59.9576 M128.635 55.8836 L134.515 55.8836 L134.515 78.4066 L139.445 78.4066 L139.445 82.2955 L134.515 82.2955 L134.515 90.4436 L129.862 90.4436 L129.862 82.2955 L114.26 82.2955 L114.26 77.7816 L128.635 55.8836 Z"
     fill="#000000"
     fill-rule="nonzero"
     fill-opacity="1"
     id="path54" />
  <path
     clip-path="url(#clip310)"
     d="M147.177 84.564 L152.061 84.564 L152.061 90.4436 L147.177 90.4436 L147.177 84.564 Z"
     fill="#000000"
     fill-rule="nonzero"
     fill-opacity="1"
     id="path55" />
  <path
     clip-path="url(#clip310)"
     d="M172.246 58.9623 Q168.635 58.9623 166.806 62.5271 Q165.001 66.0687 165.001 73.1983 Q165.001 80.3047 166.806 83.8695 Q168.635 87.4112 172.246 87.4112 Q175.88 87.4112 177.686 83.8695 Q179.514 80.3047 179.514 73.1983 Q179.514 66.0687 177.686 62.5271 Q175.88 58.9623 172.246 58.9623 M172.246 55.2586 Q178.056 55.2586 181.112 59.865 Q184.19 64.4483 184.19 73.1983 Q184.19 81.9251 181.112 86.5316 Q178.056 91.1149 172.246 91.1149 Q166.436 91.1149 163.357 86.5316 Q160.302 81.9251 160.302 73.1983 Q160.302 64.4483 163.357 59.865 Q166.436 55.2586 172.246 55.2586 Z"
     fill="#000000"
     fill-rule="nonzero"
     fill-opacity="1"
     id="path56" />
  <path
     clip-path="url(#clip310)"
     d="M220.579 64.9807 L210 75.6057 L220.579 86.1843 L217.824 88.9852 L207.199 78.3603 L196.575 88.9852 L193.843 86.1843 L204.399 75.6057 L193.843 64.9807 L196.575 62.1798 L207.199 72.8048 L217.824 62.1798 L220.579 64.9807 Z"
     fill="#000000"
     fill-rule="nonzero"
     fill-opacity="1"
     id="path57" />
  <path
     clip-path="url(#clip310)"
     d="M232.94 86.5084 L240.579 86.5084 L240.579 60.1428 L232.269 61.8095 L232.269 57.5502 L240.533 55.8836 L245.209 55.8836 L245.209 86.5084 L252.847 86.5084 L252.847 90.4436 L232.94 90.4436 L232.94 86.5084 Z"
     fill="#000000"
     fill-rule="nonzero"
     fill-opacity="1"
     id="path58" />
  <path
     clip-path="url(#clip310)"
     d="M272.292 58.9623 Q268.681 58.9623 266.852 62.5271 Q265.046 66.0687 265.046 73.1983 Q265.046 80.3047 266.852 83.8695 Q268.681 87.4112 272.292 87.4112 Q275.926 87.4112 277.732 83.8695 Q279.56 80.3047 279.56 73.1983 Q279.56 66.0687 277.732 62.5271 Q275.926 58.9623 272.292 58.9623 M272.292 55.2586 Q278.102 55.2586 281.157 59.865 Q284.236 64.4483 284.236 73.1983 Q284.236 81.9251 281.157 86.5316 Q278.102 91.1149 272.292 91.1149 Q266.482 91.1149 263.403 86.5316 Q260.347 81.9251 260.347 73.1983 Q260.347 64.4483 263.403 59.865 Q266.482 55.2586 272.292 55.2586 Z"
     fill="#000000"
     fill-rule="nonzero"
     fill-opacity="1"
     id="path59" />
  <path
     clip-path="url(#clip310)"
     d="M294.261 47.4791 Q291.703 47.4791 290.198 49.2283 Q288.712 50.9774 288.712 54.0242 Q288.712 57.0523 290.198 58.8202 Q291.703 60.5694 294.261 60.5694 Q296.818 60.5694 298.304 58.8202 Q299.809 57.0523 299.809 54.0242 Q299.809 50.9774 298.304 49.2283 Q296.818 47.4791 294.261 47.4791 M301.803 35.5738 L301.803 39.0345 Q300.373 38.3574 298.906 38 Q297.458 37.6427 296.029 37.6427 Q292.267 37.6427 290.273 40.1817 Q288.299 42.7208 288.016 47.8553 Q289.126 46.219 290.8 45.3539 Q292.474 44.4699 294.486 44.4699 Q298.718 44.4699 301.163 47.0466 Q303.627 49.6044 303.627 54.0242 Q303.627 58.35 301.069 60.9643 Q298.511 63.5786 294.261 63.5786 Q289.389 63.5786 286.813 59.8547 Q284.236 56.1119 284.236 49.0214 Q284.236 42.3634 287.396 38.4138 Q290.556 34.4454 295.878 34.4454 Q297.307 34.4454 298.756 34.7275 Q300.223 35.0096 301.803 35.5738 Z"
     fill="#000000"
     fill-rule="nonzero"
     fill-opacity="1"
     id="path60" />
  <path
     clip-path="url(#clip310)"
     d="M39.9715 732.838 Q40.197 732.612 40.519 732.612 Q40.8411 732.612 41.5818 733.353 L59.1662 749.037 Q80.2289 743.047 80.2289 739.762 Q80.2289 738.764 79.4559 737.733 Q78.7152 736.67 77.588 736.251 Q77.0405 736.09 76.8473 735.929 Q76.654 735.768 76.654 735.317 Q76.654 734.545 77.3948 734.545 Q77.7812 734.545 78.4253 734.899 Q79.1017 735.253 79.8424 735.897 Q80.6153 736.541 81.1306 737.669 Q81.6781 738.796 81.6781 740.148 Q81.6781 741.823 81.2917 743.176 Q80.9052 744.528 80.4221 745.301 Q79.939 746.074 79.0695 746.783 Q78.2321 747.459 77.7168 747.717 Q77.2337 747.942 76.3964 748.329 Q74.5928 749.102 72.5961 749.81 Q70.5993 750.519 69.1501 750.97 Q67.7008 751.42 63.2564 752.805 L80.2289 767.91 Q80.9374 768.618 80.9374 768.973 Q80.9374 769.262 80.6798 769.52 Q80.4543 769.778 80.1645 769.778 Q79.8424 769.778 79.1017 769.037 L62.1614 753.868 Q61.9359 753.643 61.7427 753.514 Q61.5495 753.385 61.4851 753.385 L61.4206 753.353 Q61.2596 753.353 59.1984 753.932 Q57.1373 754.512 53.9489 755.575 Q50.7283 756.606 48.3773 757.572 Q46.7992 758.184 45.833 758.602 Q44.8668 759.021 43.4176 759.762 Q41.9683 760.47 41.2276 761.211 Q40.4546 761.952 40.4546 762.628 Q40.4546 762.853 40.5512 763.208 Q40.6479 763.562 40.9055 764.142 Q41.131 764.689 41.7751 765.237 Q42.387 765.784 43.2887 766.138 Q43.9973 766.428 43.9973 766.976 Q43.9973 767.33 43.8362 767.556 Q43.6752 767.749 43.5142 767.749 L43.3532 767.781 Q42.7735 767.781 41.8073 767.233 Q40.8411 766.686 39.9393 765.333 Q39.0054 763.981 39.0054 762.242 Q39.0054 760.599 39.3918 759.246 Q39.7783 757.894 40.2292 757.153 Q40.6801 756.38 41.5174 755.704 Q42.3226 755.027 42.709 754.834 Q43.0633 754.609 43.804 754.255 Q46.3161 753.16 48.4739 752.451 Q50.5995 751.71 57.3305 749.585 L40.519 734.48 Q39.7139 733.804 39.7139 733.417 Q39.7139 733.063 39.9715 732.838 Z"
     fill="#000000"
     fill-rule="nonzero"
     fill-opacity="1"
     id="path61" />
  <path
     clip-path="url(#clip310)"
     d="M48.415 725.941 Q47.5808 725.941 47.3328 725.873 Q47.0849 725.783 46.7016 725.422 L36.8273 716.563 Q31.3716 711.716 26.6148 711.716 Q23.5263 711.716 21.3169 713.339 Q19.1076 714.939 19.1076 717.893 Q19.1076 719.922 20.3475 721.635 Q21.5875 723.348 23.7968 724.137 Q23.7517 724.002 23.7517 723.529 Q23.7517 722.379 24.4731 721.748 Q25.1945 721.094 26.1639 721.094 Q27.4039 721.094 28.0125 721.905 Q28.5987 722.695 28.5987 723.484 Q28.5987 723.799 28.5311 724.228 Q28.4634 724.633 27.8322 725.287 Q27.1784 725.941 26.0287 725.941 Q22.8049 725.941 20.2348 723.506 Q17.6648 721.049 17.6648 717.306 Q17.6648 713.068 20.1897 710.295 Q22.6921 707.5 26.6148 707.5 Q27.99 707.5 29.2525 707.928 Q30.4924 708.334 31.4618 708.898 Q32.4312 709.439 33.9867 710.927 Q35.5423 712.414 36.6469 713.609 Q37.7516 714.804 40.0962 717.487 L44.853 722.379 L44.853 714.06 Q44.853 710.002 44.4923 709.687 Q43.8385 709.236 40.3893 708.672 L40.3893 707.5 L48.415 708.807 L48.415 725.941 Z"
     fill="#000000"
     fill-rule="nonzero"
     fill-opacity="1"
     id="path62" />
  <polyline
     clip-path="url(#clip312)"
     style="stroke:#009af9;stroke-linecap:round;stroke-linejoin:round;stroke-width:12;stroke-opacity:1;fill:none;stroke-dasharray:none"
     points="396.602,1164.96 415.594,1147.09 434.586,1143.26 453.578,1150.35 472.569,1165.25 491.561,1184.83 510.553,1205.98 529.545,1226.3 548.537,1245.42 567.528,1263.35 586.52,1280.07 605.512,1295.57 624.504,1309.84 643.495,1322.89 662.487,1334.7 681.479,1345.27 700.471,1354.59 719.463,1362.65 738.454,1369.44 757.446,1374.97 776.438,1379.21 795.43,1382.17 814.421,1383.84 833.413,1384.21 852.405,1383.27 871.397,1381.01 890.389,1377.44 909.38,1372.53 928.372,1366.29 947.364,1358.71 966.356,1349.77 985.348,1339.51 1004.34,1327.97 1023.33,1315.19 1042.32,1301.23 1061.31,1286.12 1080.31,1269.93 1099.3,1252.68 1118.29,1234.44 1137.28,1215.25 1156.27,1195.17 1175.27,1174.24 1194.26,1152.51 1213.25,1129.97 1232.24,1106.61 1251.23,1082.41 1270.22,1057.34 1289.22,1031.39 1308.21,1004.54 1327.2,976.852 1346.19,948.382 1365.18,919.195 1384.17,889.356 1403.17,858.93 1422.16,827.998 1441.15,796.701 1460.14,765.19 1479.13,733.617 1498.13,702.136 1517.12,670.897 1536.11,640.091 1555.1,609.995 1574.09,580.901 1593.08,553.099 1612.08,526.881 1631.07,502.536 1650.06,480.178 1669.05,459.622 1688.04,440.655 1707.04,423.06 1726.03,406.624 1745.02,391.133 1764.01,376.424 1783,362.395 1801.99,348.95 1820.99,335.991 1839.98,323.423 1858.97,311.147 1877.96,299.081 1896.95,287.155 1915.94,275.297 1934.94,263.437 1953.93,251.505 1972.92,239.436 1991.91,227.227 2010.9,214.92 2029.9,202.557 2048.89,190.18 2067.88,177.831 2086.87,165.546 2105.86,153.298 2124.85,141.032 2143.85,128.694 2162.84,116.227 2181.83,103.575 2200.82,91.5789 2219.81,86.1857 2238.81,95.1534 2257.8,126.242 2276.79,187.212 2295.78,285.822 "
     id="polyline62" />
  <circle
     clip-path="url(#clip312)"
     cx="396.602"
     cy="1164.96"
     r="14.4"
     fill="#008000"
     fill-rule="evenodd"
     fill-opacity="1"
     stroke="#000000"
     stroke-opacity="1"
     stroke-width="3.2"
     id="circle62" />
  <circle
     clip-path="url(#clip312)"
     cx="508.319"
     cy="1203.51"
     r="14.4"
     fill="#008000"
     fill-rule="evenodd"
     fill-opacity="1"
     stroke="#000000"
     stroke-opacity="1"
     stroke-width="3.2"
     id="circle63" />
  <circle
     clip-path="url(#clip312)"
     cx="620.035"
     cy="1306.59"
     r="14.4"
     fill="#008000"
     fill-rule="evenodd"
     fill-opacity="1"
     stroke="#000000"
     stroke-opacity="1"
     stroke-width="3.2"
     id="circle64" />
  <circle
     clip-path="url(#clip312)"
     cx="731.751"
     cy="1367.19"
     r="14.4"
     fill="#008000"
     fill-rule="evenodd"
     fill-opacity="1"
     stroke="#000000"
     stroke-opacity="1"
     stroke-width="3.2"
     id="circle65" />
  <circle
     clip-path="url(#clip312)"
     cx="843.468"
     cy="1383.87"
     r="14.4"
     fill="#008000"
     fill-rule="evenodd"
     fill-opacity="1"
     stroke="#000000"
     stroke-opacity="1"
     stroke-width="3.2"
     id="circle66" />
  <circle
     clip-path="url(#clip312)"
     cx="955.184"
     cy="1355.19"
     r="14.4"
     fill="#008000"
     fill-rule="evenodd"
     fill-opacity="1"
     stroke="#000000"
     stroke-opacity="1"
     stroke-width="3.2"
     id="circle67" />
  <circle
     clip-path="url(#clip312)"
     cx="1066.9"
     cy="1281.47"
     r="14.4"
     fill="#008000"
     fill-rule="evenodd"
     fill-opacity="1"
     stroke="#000000"
     stroke-opacity="1"
     stroke-width="3.2"
     id="circle68" />
  <circle
     clip-path="url(#clip312)"
     cx="1178.62"
     cy="1170.46"
     r="14.4"
     fill="#008000"
     fill-rule="evenodd"
     fill-opacity="1"
     stroke="#000000"
     stroke-opacity="1"
     stroke-width="3.2"
     id="circle69" />
  <circle
     clip-path="url(#clip312)"
     cx="1290.33"
     cy="1029.83"
     r="14.4"
     fill="#008000"
     fill-rule="evenodd"
     fill-opacity="1"
     stroke="#000000"
     stroke-opacity="1"
     stroke-width="3.2"
     id="circle70" />
  <circle
     clip-path="url(#clip312)"
     cx="1402.05"
     cy="860.735"
     r="14.4"
     fill="#008000"
     fill-rule="evenodd"
     fill-opacity="1"
     stroke="#000000"
     stroke-opacity="1"
     stroke-width="3.2"
     id="circle71" />
  <circle
     clip-path="url(#clip312)"
     cx="1513.77"
     cy="676.385"
     r="14.4"
     fill="#008000"
     fill-rule="evenodd"
     fill-opacity="1"
     stroke="#000000"
     stroke-opacity="1"
     stroke-width="3.2"
     id="circle72" />
  <circle
     clip-path="url(#clip312)"
     cx="1625.48"
     cy="509.486"
     r="14.4"
     fill="#008000"
     fill-rule="evenodd"
     fill-opacity="1"
     stroke="#000000"
     stroke-opacity="1"
     stroke-width="3.2"
     id="circle73" />
  <circle
     clip-path="url(#clip312)"
     cx="1737.2"
     cy="397.41"
     r="14.4"
     fill="#008000"
     fill-rule="evenodd"
     fill-opacity="1"
     stroke="#000000"
     stroke-opacity="1"
     stroke-width="3.2"
     id="circle74" />
  <circle
     clip-path="url(#clip312)"
     cx="1848.92"
     cy="317.615"
     r="14.4"
     fill="#008000"
     fill-rule="evenodd"
     fill-opacity="1"
     stroke="#000000"
     stroke-opacity="1"
     stroke-width="3.2"
     id="circle75" />
  <circle
     clip-path="url(#clip312)"
     cx="1960.63"
     cy="247.264"
     r="14.4"
     fill="#008000"
     fill-rule="evenodd"
     fill-opacity="1"
     stroke="#000000"
     stroke-opacity="1"
     stroke-width="3.2"
     id="circle76" />
  <circle
     clip-path="url(#clip312)"
     cx="2072.35"
     cy="174.934"
     r="14.4"
     fill="#008000"
     fill-rule="evenodd"
     fill-opacity="1"
     stroke="#000000"
     stroke-opacity="1"
     stroke-width="3.2"
     id="circle77" />
  <circle
     clip-path="url(#clip312)"
     cx="2184.06"
     cy="102.072"
     r="14.4"
     fill="#008000"
     fill-rule="evenodd"
     fill-opacity="1"
     stroke="#000000"
     stroke-opacity="1"
     stroke-width="3.2"
     id="circle78" />
  <circle
     clip-path="url(#clip312)"
     cx="2295.78"
     cy="285.822"
     r="14.4"
     fill="#008000"
     fill-rule="evenodd"
     fill-opacity="1"
     stroke="#000000"
     stroke-opacity="1"
     stroke-width="3.2"
     id="circle79" />
  <circle
     clip-path="url(#clip312)"
     cx="829.27399"
     cy="1384.24"
     r="14.4"
     fill="#ff0000"
     fill-rule="evenodd"
     fill-opacity="1"
     stroke="#000000"
     stroke-opacity="1"
     stroke-width="1.43817"
     id="circle80"
     transform="matrix(2.2250524,0,0,2.2250524,-1015.9041,-1695.7665)" />
  <path
     clip-path="url(#clip310)"
     d="M856.898 314.696 L1835.49 314.696 L1835.49 93.1086 L856.898 93.1086  Z"
     fill="#ffffff"
     fill-rule="evenodd"
     fill-opacity="1"
     id="path80" />
  <polyline
     clip-path="url(#clip310)"
     style="stroke:#000000; stroke-linecap:round; stroke-linejoin:round; stroke-width:4; stroke-opacity:1; fill:none"
     points="856.898,314.696 1835.49,314.696 1835.49,93.1086 856.898,93.1086 856.898,314.696 "
     id="polyline80" />
  <polyline
     clip-path="url(#clip310)"
     style="stroke:#009af9;stroke-linecap:round;stroke-linejoin:round;stroke-width:12;stroke-opacity:1;fill:none;stroke-dasharray:none"
     points="879.266,148.505 1013.47,148.505 "
     id="polyline81" />
  <path
     clip-path="url(#clip310)"
     d="M1063.71 129.984 L1063.71 134.915 Q1061.35 132.716 1058.67 131.628 Q1056 130.54 1053 130.54 Q1047.07 130.54 1043.92 134.174 Q1040.77 137.785 1040.77 144.637 Q1040.77 151.466 1043.92 155.1 Q1047.07 158.711 1053 158.711 Q1056 158.711 1058.67 157.623 Q1061.35 156.535 1063.71 154.336 L1063.71 159.22 Q1061.26 160.887 1058.5 161.72 Q1055.77 162.554 1052.72 162.554 Q1044.87 162.554 1040.36 157.762 Q1035.84 152.947 1035.84 144.637 Q1035.84 136.304 1040.36 131.512 Q1044.87 126.697 1052.72 126.697 Q1055.82 126.697 1058.55 127.531 Q1061.31 128.341 1063.71 129.984 Z"
     fill="#000000"
     fill-rule="nonzero"
     fill-opacity="1"
     id="path81" />
  <path
     clip-path="url(#clip310)"
     d="M1070.31 151.651 L1070.31 135.957 L1074.57 135.957 L1074.57 151.489 Q1074.57 155.17 1076 157.021 Q1077.44 158.85 1080.31 158.85 Q1083.76 158.85 1085.75 156.651 Q1087.76 154.452 1087.76 150.656 L1087.76 135.957 L1092.02 135.957 L1092.02 161.882 L1087.76 161.882 L1087.76 157.901 Q1086.21 160.262 1084.15 161.419 Q1082.12 162.554 1079.41 162.554 Q1074.94 162.554 1072.62 159.776 Q1070.31 156.998 1070.31 151.651 M1081.03 135.332 L1081.03 135.332 Z"
     fill="#000000"
     fill-rule="nonzero"
     fill-opacity="1"
     id="path82" />
  <path
     clip-path="url(#clip310)"
     d="M1119.41 148.943 Q1119.41 144.244 1117.46 141.582 Q1115.54 138.896 1112.16 138.896 Q1108.78 138.896 1106.84 141.582 Q1104.92 144.244 1104.92 148.943 Q1104.92 153.642 1106.84 156.327 Q1108.78 158.989 1112.16 158.989 Q1115.54 158.989 1117.46 156.327 Q1119.41 153.642 1119.41 148.943 M1104.92 139.892 Q1106.26 137.577 1108.3 136.466 Q1110.36 135.332 1113.2 135.332 Q1117.93 135.332 1120.87 139.082 Q1123.83 142.832 1123.83 148.943 Q1123.83 155.054 1120.87 158.804 Q1117.93 162.554 1113.2 162.554 Q1110.36 162.554 1108.3 161.443 Q1106.26 160.308 1104.92 157.994 L1104.92 161.882 L1100.63 161.882 L1100.63 125.864 L1104.92 125.864 L1104.92 139.892 Z"
     fill="#000000"
     fill-rule="nonzero"
     fill-opacity="1"
     id="path83" />
  <path
     clip-path="url(#clip310)"
     d="M1130.89 135.957 L1135.15 135.957 L1135.15 161.882 L1130.89 161.882 L1130.89 135.957 M1130.89 125.864 L1135.15 125.864 L1135.15 131.258 L1130.89 131.258 L1130.89 125.864 Z"
     fill="#000000"
     fill-rule="nonzero"
     fill-opacity="1"
     id="path84" />
  <path
     clip-path="url(#clip310)"
     d="M1162.72 136.952 L1162.72 140.933 Q1160.91 139.938 1159.08 139.452 Q1157.28 138.943 1155.43 138.943 Q1151.28 138.943 1148.99 141.582 Q1146.7 144.197 1146.7 148.943 Q1146.7 153.688 1148.99 156.327 Q1151.28 158.943 1155.43 158.943 Q1157.28 158.943 1159.08 158.457 Q1160.91 157.947 1162.72 156.952 L1162.72 160.887 Q1160.93 161.72 1159.01 162.137 Q1157.11 162.554 1154.96 162.554 Q1149.11 162.554 1145.66 158.873 Q1142.21 155.193 1142.21 148.943 Q1142.21 142.6 1145.68 138.966 Q1149.18 135.332 1155.24 135.332 Q1157.21 135.332 1159.08 135.748 Q1160.96 136.142 1162.72 136.952 Z"
     fill="#000000"
     fill-rule="nonzero"
     fill-opacity="1"
     id="path85" />
  <path
     clip-path="url(#clip310)"
     d="M1190.05 145.378 L1190.05 158.04 L1197.55 158.04 Q1201.33 158.04 1203.13 156.489 Q1204.96 154.915 1204.96 151.697 Q1204.96 148.457 1203.13 146.929 Q1201.33 145.378 1197.55 145.378 L1190.05 145.378 M1190.05 131.165 L1190.05 141.582 L1196.98 141.582 Q1200.4 141.582 1202.07 140.308 Q1203.76 139.012 1203.76 136.373 Q1203.76 133.758 1202.07 132.461 Q1200.4 131.165 1196.98 131.165 L1190.05 131.165 M1185.38 127.322 L1197.32 127.322 Q1202.67 127.322 1205.56 129.545 Q1208.46 131.767 1208.46 135.864 Q1208.46 139.035 1206.98 140.91 Q1205.49 142.785 1202.62 143.248 Q1206.07 143.989 1207.97 146.35 Q1209.89 148.688 1209.89 152.207 Q1209.89 156.836 1206.74 159.359 Q1203.6 161.882 1197.79 161.882 L1185.38 161.882 L1185.38 127.322 Z"
     fill="#000000"
     fill-rule="nonzero"
     fill-opacity="1"
     id="path86" />
  <path
     clip-path="url(#clip310)"
     d="M1237.79 128.457 L1237.79 133.017 Q1235.12 131.744 1232.76 131.119 Q1230.4 130.494 1228.2 130.494 Q1224.38 130.494 1222.3 131.975 Q1220.24 133.457 1220.24 136.188 Q1220.24 138.48 1221.61 139.66 Q1222.99 140.818 1226.84 141.535 L1229.66 142.114 Q1234.89 143.109 1237.37 145.633 Q1239.87 148.133 1239.87 152.345 Q1239.87 157.369 1236.49 159.961 Q1233.13 162.554 1226.63 162.554 Q1224.17 162.554 1221.4 161.998 Q1218.64 161.443 1215.68 160.355 L1215.68 155.54 Q1218.53 157.137 1221.26 157.947 Q1223.99 158.757 1226.63 158.757 Q1230.63 158.757 1232.81 157.183 Q1234.98 155.609 1234.98 152.693 Q1234.98 150.146 1233.41 148.711 Q1231.86 147.276 1228.3 146.558 L1225.45 146.003 Q1220.22 144.961 1217.88 142.739 Q1215.54 140.517 1215.54 136.559 Q1215.54 131.975 1218.76 129.336 Q1222 126.697 1227.67 126.697 Q1230.1 126.697 1232.62 127.137 Q1235.15 127.577 1237.79 128.457 Z"
     fill="#000000"
     fill-rule="nonzero"
     fill-opacity="1"
     id="path87" />
  <path
     clip-path="url(#clip310)"
     d="M1251.1 157.994 L1251.1 171.744 L1246.81 171.744 L1246.81 135.957 L1251.1 135.957 L1251.1 139.892 Q1252.44 137.577 1254.48 136.466 Q1256.54 135.332 1259.38 135.332 Q1264.11 135.332 1267.04 139.082 Q1270.01 142.832 1270.01 148.943 Q1270.01 155.054 1267.04 158.804 Q1264.11 162.554 1259.38 162.554 Q1256.54 162.554 1254.48 161.443 Q1252.44 160.308 1251.1 157.994 M1265.59 148.943 Q1265.59 144.244 1263.64 141.582 Q1261.72 138.896 1258.34 138.896 Q1254.96 138.896 1253.02 141.582 Q1251.1 144.244 1251.1 148.943 Q1251.1 153.642 1253.02 156.327 Q1254.96 158.989 1258.34 158.989 Q1261.72 158.989 1263.64 156.327 Q1265.59 153.642 1265.59 148.943 Z"
     fill="#000000"
     fill-rule="nonzero"
     fill-opacity="1"
     id="path88" />
  <path
     clip-path="url(#clip310)"
     d="M1277.07 125.864 L1281.33 125.864 L1281.33 161.882 L1277.07 161.882 L1277.07 125.864 Z"
     fill="#000000"
     fill-rule="nonzero"
     fill-opacity="1"
     id="path89" />
  <path
     clip-path="url(#clip310)"
     d="M1290.24 135.957 L1294.5 135.957 L1294.5 161.882 L1290.24 161.882 L1290.24 135.957 M1290.24 125.864 L1294.5 125.864 L1294.5 131.258 L1290.24 131.258 L1290.24 125.864 Z"
     fill="#000000"
     fill-rule="nonzero"
     fill-opacity="1"
     id="path90" />
  <path
     clip-path="url(#clip310)"
     d="M1324.96 146.234 L1324.96 161.882 L1320.7 161.882 L1320.7 146.373 Q1320.7 142.693 1319.27 140.864 Q1317.83 139.035 1314.96 139.035 Q1311.51 139.035 1309.52 141.234 Q1307.53 143.433 1307.53 147.23 L1307.53 161.882 L1303.25 161.882 L1303.25 135.957 L1307.53 135.957 L1307.53 139.984 Q1309.06 137.646 1311.12 136.489 Q1313.2 135.332 1315.91 135.332 Q1320.38 135.332 1322.67 138.109 Q1324.96 140.864 1324.96 146.234 Z"
     fill="#000000"
     fill-rule="nonzero"
     fill-opacity="1"
     id="path91" />
  <path
     clip-path="url(#clip310)"
     d="M1355.63 147.855 L1355.63 149.938 L1336.05 149.938 Q1336.33 154.336 1338.69 156.651 Q1341.07 158.943 1345.31 158.943 Q1347.76 158.943 1350.05 158.341 Q1352.37 157.739 1354.64 156.535 L1354.64 160.563 Q1352.35 161.535 1349.94 162.044 Q1347.53 162.554 1345.05 162.554 Q1338.85 162.554 1335.22 158.943 Q1331.6 155.332 1331.6 149.174 Q1331.6 142.808 1335.03 139.082 Q1338.48 135.332 1344.31 135.332 Q1349.54 135.332 1352.58 138.711 Q1355.63 142.068 1355.63 147.855 M1351.37 146.605 Q1351.33 143.109 1349.41 141.026 Q1347.51 138.943 1344.36 138.943 Q1340.79 138.943 1338.64 140.957 Q1336.51 142.971 1336.19 146.628 L1351.37 146.605 Z"
     fill="#000000"
     fill-rule="nonzero"
     fill-opacity="1"
     id="path92" />
  <path
     clip-path="url(#clip310)"
     d="M1387.74 138.943 Q1384.31 138.943 1382.32 141.628 Q1380.33 144.29 1380.33 148.943 Q1380.33 153.595 1382.3 156.281 Q1384.29 158.943 1387.74 158.943 Q1391.14 158.943 1393.13 156.257 Q1395.12 153.572 1395.12 148.943 Q1395.12 144.336 1393.13 141.651 Q1391.14 138.943 1387.74 138.943 M1387.74 135.332 Q1393.29 135.332 1396.47 138.943 Q1399.64 142.554 1399.64 148.943 Q1399.64 155.308 1396.47 158.943 Q1393.29 162.554 1387.74 162.554 Q1382.16 162.554 1378.99 158.943 Q1375.84 155.308 1375.84 148.943 Q1375.84 142.554 1378.99 138.943 Q1382.16 135.332 1387.74 135.332 Z"
     fill="#000000"
     fill-rule="nonzero"
     fill-opacity="1"
     id="path93" />
  <path
     clip-path="url(#clip310)"
     d="M1419.82 125.864 L1419.82 129.406 L1415.75 129.406 Q1413.46 129.406 1412.55 130.332 Q1411.67 131.258 1411.67 133.665 L1411.67 135.957 L1418.69 135.957 L1418.69 139.267 L1411.67 139.267 L1411.67 161.882 L1407.39 161.882 L1407.39 139.267 L1403.32 139.267 L1403.32 135.957 L1407.39 135.957 L1407.39 134.151 Q1407.39 129.822 1409.41 127.855 Q1411.42 125.864 1415.79 125.864 L1419.82 125.864 Z"
     fill="#000000"
     fill-rule="nonzero"
     fill-opacity="1"
     id="path94" />
  <path
     clip-path="url(#clip310)"
     d="M1460.85 141.388 Q1461.02 141.552 1461.02 141.786 Q1461.02 142.02 1460.48 142.559 L1449.07 155.348 Q1453.43 170.666 1455.82 170.666 Q1456.54 170.666 1457.29 170.104 Q1458.07 169.565 1458.37 168.745 Q1458.49 168.347 1458.61 168.207 Q1458.72 168.066 1459.05 168.066 Q1459.61 168.066 1459.61 168.605 Q1459.61 168.886 1459.35 169.354 Q1459.1 169.846 1458.63 170.385 Q1458.16 170.947 1457.34 171.322 Q1456.52 171.72 1455.54 171.72 Q1454.32 171.72 1453.34 171.439 Q1452.35 171.158 1451.79 170.806 Q1451.23 170.455 1450.71 169.823 Q1450.22 169.214 1450.03 168.839 Q1449.87 168.488 1449.59 167.879 Q1449.03 166.567 1448.51 165.115 Q1448 163.663 1447.67 162.609 Q1447.34 161.555 1446.33 158.322 L1435.35 170.666 Q1434.83 171.181 1434.57 171.181 Q1434.36 171.181 1434.18 170.994 Q1433.99 170.83 1433.99 170.619 Q1433.99 170.385 1434.53 169.846 L1445.56 157.526 Q1445.72 157.362 1445.82 157.221 Q1445.91 157.081 1445.91 157.034 L1445.93 156.987 Q1445.93 156.87 1445.51 155.371 Q1445.09 153.872 1444.32 151.553 Q1443.57 149.211 1442.87 147.501 Q1442.42 146.353 1442.12 145.651 Q1441.81 144.948 1441.27 143.894 Q1440.76 142.84 1440.22 142.301 Q1439.68 141.739 1439.19 141.739 Q1439.02 141.739 1438.77 141.809 Q1438.51 141.88 1438.09 142.067 Q1437.69 142.231 1437.29 142.699 Q1436.89 143.144 1436.64 143.8 Q1436.42 144.316 1436.03 144.316 Q1435.77 144.316 1435.6 144.199 Q1435.46 144.081 1435.46 143.964 L1435.44 143.847 Q1435.44 143.426 1435.84 142.723 Q1436.24 142.02 1437.22 141.364 Q1438.2 140.685 1439.47 140.685 Q1440.66 140.685 1441.65 140.966 Q1442.63 141.247 1443.17 141.575 Q1443.73 141.903 1444.22 142.512 Q1444.72 143.098 1444.86 143.379 Q1445.02 143.636 1445.28 144.175 Q1446.07 146.002 1446.59 147.571 Q1447.13 149.117 1448.67 154.013 L1459.66 141.786 Q1460.15 141.2 1460.43 141.2 Q1460.69 141.2 1460.85 141.388 Z"
     fill="#000000"
     fill-rule="nonzero"
     fill-opacity="1"
     id="path95" />
  <path
     clip-path="url(#clip310)"
     d="M1465.87 147.543 Q1465.87 146.936 1465.92 146.756 Q1465.99 146.575 1466.25 146.297 L1472.69 139.115 Q1476.22 135.147 1476.22 131.688 Q1476.22 129.442 1475.04 127.835 Q1473.88 126.228 1471.73 126.228 Q1470.25 126.228 1469.01 127.13 Q1467.76 128.032 1467.19 129.638 Q1467.28 129.606 1467.63 129.606 Q1468.46 129.606 1468.92 130.13 Q1469.4 130.655 1469.4 131.36 Q1469.4 132.262 1468.81 132.704 Q1468.24 133.131 1467.66 133.131 Q1467.43 133.131 1467.12 133.082 Q1466.83 133.032 1466.35 132.573 Q1465.87 132.098 1465.87 131.262 Q1465.87 128.917 1467.64 127.048 Q1469.43 125.179 1472.15 125.179 Q1475.24 125.179 1477.25 127.015 Q1479.29 128.835 1479.29 131.688 Q1479.29 132.688 1478.97 133.606 Q1478.68 134.508 1478.27 135.213 Q1477.88 135.918 1476.79 137.049 Q1475.71 138.181 1474.84 138.984 Q1473.97 139.787 1472.02 141.493 L1468.46 144.952 L1474.51 144.952 Q1477.47 144.952 1477.7 144.69 Q1478.02 144.214 1478.43 141.706 L1479.29 141.706 L1478.33 147.543 L1465.87 147.543 Z"
     fill="#000000"
     fill-rule="nonzero"
     fill-opacity="1"
     id="path96" />
  <circle
     clip-path="url(#clip310)"
     cx="946.37"
     cy="203.902"
     r="20.48"
     fill="#008000"
     fill-rule="evenodd"
     fill-opacity="1"
     stroke="#000000"
     stroke-opacity="1"
     stroke-width="4.55111"
     id="circle96" />
  <path
     clip-path="url(#clip310)"
     d="M1062.71 196.785 Q1062.87 196.949 1062.87 197.183 Q1062.87 197.417 1062.33 197.956 L1050.93 210.744 Q1055.28 226.063 1057.67 226.063 Q1058.4 226.063 1059.15 225.501 Q1059.92 224.962 1060.23 224.142 Q1060.34 223.744 1060.46 223.603 Q1060.58 223.463 1060.9 223.463 Q1061.47 223.463 1061.47 224.002 Q1061.47 224.283 1061.21 224.751 Q1060.95 225.243 1060.48 225.782 Q1060.01 226.344 1059.19 226.719 Q1058.37 227.117 1057.39 227.117 Q1056.17 227.117 1055.19 226.836 Q1054.21 226.555 1053.64 226.203 Q1053.08 225.852 1052.57 225.22 Q1052.07 224.611 1051.89 224.236 Q1051.72 223.884 1051.44 223.275 Q1050.88 221.964 1050.36 220.512 Q1049.85 219.059 1049.52 218.005 Q1049.19 216.951 1048.19 213.719 L1037.2 226.063 Q1036.69 226.578 1036.43 226.578 Q1036.22 226.578 1036.03 226.391 Q1035.84 226.227 1035.84 226.016 Q1035.84 225.782 1036.38 225.243 L1047.41 212.923 Q1047.58 212.759 1047.67 212.618 Q1047.76 212.478 1047.76 212.431 L1047.79 212.384 Q1047.79 212.267 1047.37 210.768 Q1046.94 209.269 1046.17 206.95 Q1045.42 204.608 1044.72 202.898 Q1044.27 201.75 1043.97 201.048 Q1043.67 200.345 1043.13 199.291 Q1042.61 198.237 1042.07 197.698 Q1041.53 197.136 1041.04 197.136 Q1040.88 197.136 1040.62 197.206 Q1040.36 197.277 1039.94 197.464 Q1039.54 197.628 1039.15 198.096 Q1038.75 198.541 1038.49 199.197 Q1038.28 199.712 1037.88 199.712 Q1037.62 199.712 1037.46 199.595 Q1037.32 199.478 1037.32 199.361 L1037.29 199.244 Q1037.29 198.822 1037.69 198.12 Q1038.09 197.417 1039.07 196.761 Q1040.06 196.082 1041.32 196.082 Q1042.52 196.082 1043.5 196.363 Q1044.49 196.644 1045.02 196.972 Q1045.59 197.3 1046.08 197.909 Q1046.57 198.495 1046.71 198.776 Q1046.87 199.033 1047.13 199.572 Q1047.93 201.399 1048.44 202.968 Q1048.98 204.514 1050.53 209.409 L1061.51 197.183 Q1062.01 196.597 1062.29 196.597 Q1062.54 196.597 1062.71 196.785 Z"
     fill="#000000"
     fill-rule="nonzero"
     fill-opacity="1"
     id="path97" />
  <path
     clip-path="url(#clip310)"
     d="M1067.73 202.939 Q1067.73 202.333 1067.78 202.152 Q1067.84 201.972 1068.11 201.693 L1074.55 194.512 Q1078.07 190.544 1078.07 187.085 Q1078.07 184.839 1076.89 183.232 Q1075.73 181.625 1073.58 181.625 Q1072.11 181.625 1070.86 182.527 Q1069.61 183.429 1069.04 185.035 Q1069.14 185.003 1069.48 185.003 Q1070.32 185.003 1070.78 185.527 Q1071.25 186.052 1071.25 186.757 Q1071.25 187.659 1070.66 188.101 Q1070.09 188.528 1069.52 188.528 Q1069.29 188.528 1068.97 188.478 Q1068.68 188.429 1068.2 187.97 Q1067.73 187.495 1067.73 186.659 Q1067.73 184.314 1069.5 182.445 Q1071.29 180.576 1074.01 180.576 Q1077.09 180.576 1079.11 182.412 Q1081.14 184.232 1081.14 187.085 Q1081.14 188.085 1080.83 189.003 Q1080.53 189.905 1080.12 190.61 Q1079.73 191.315 1078.65 192.446 Q1077.57 193.578 1076.7 194.381 Q1075.83 195.184 1073.88 196.889 L1070.32 200.349 L1076.37 200.349 Q1079.32 200.349 1079.55 200.087 Q1079.88 199.611 1080.29 197.103 L1081.14 197.103 L1080.19 202.939 L1067.73 202.939 Z"
     fill="#000000"
     fill-rule="nonzero"
     fill-opacity="1"
     id="path98" />
  <circle
     clip-path="url(#clip310)"
     cx="946.37"
     cy="259.299"
     r="20.48"
     fill="#ff0000"
     fill-rule="evenodd"
     fill-opacity="1"
     stroke="#000000"
     stroke-opacity="1"
     stroke-width="4.55111"
     id="circle98" />
  <path
     clip-path="url(#clip310)"
     d="M1051.68 233.819 L1045.33 251.018 L1058.04 251.018 L1051.68 233.819 M1049.04 229.213 L1054.34 229.213 L1067.51 263.773 L1062.65 263.773 L1059.5 254.907 L1043.92 254.907 L1040.77 263.773 L1035.84 263.773 L1049.04 229.213 Z"
     fill="#000000"
     fill-rule="nonzero"
     fill-opacity="1"
     id="path99" />
  <path
     clip-path="url(#clip310)"
     d="M1076.49 259.884 L1076.49 273.634 L1072.21 273.634 L1072.21 237.847 L1076.49 237.847 L1076.49 241.782 Q1077.83 239.467 1079.87 238.356 Q1081.93 237.222 1084.78 237.222 Q1089.5 237.222 1092.44 240.972 Q1095.4 244.722 1095.4 250.833 Q1095.4 256.944 1092.44 260.694 Q1089.5 264.444 1084.78 264.444 Q1081.93 264.444 1079.87 263.333 Q1077.83 262.199 1076.49 259.884 M1090.98 250.833 Q1090.98 246.134 1089.04 243.472 Q1087.12 240.787 1083.74 240.787 Q1080.36 240.787 1078.41 243.472 Q1076.49 246.134 1076.49 250.833 Q1076.49 255.532 1078.41 258.217 Q1080.36 260.879 1083.74 260.879 Q1087.12 260.879 1089.04 258.217 Q1090.98 255.532 1090.98 250.833 Z"
     fill="#000000"
     fill-rule="nonzero"
     fill-opacity="1"
     id="path100" />
  <path
     clip-path="url(#clip310)"
     d="M1106.58 259.884 L1106.58 273.634 L1102.3 273.634 L1102.3 237.847 L1106.58 237.847 L1106.58 241.782 Q1107.93 239.467 1109.96 238.356 Q1112.02 237.222 1114.87 237.222 Q1119.59 237.222 1122.53 240.972 Q1125.49 244.722 1125.49 250.833 Q1125.49 256.944 1122.53 260.694 Q1119.59 264.444 1114.87 264.444 Q1112.02 264.444 1109.96 263.333 Q1107.93 262.199 1106.58 259.884 M1121.07 250.833 Q1121.07 246.134 1119.13 243.472 Q1117.21 240.787 1113.83 240.787 Q1110.45 240.787 1108.5 243.472 Q1106.58 246.134 1106.58 250.833 Q1106.58 255.532 1108.5 258.217 Q1110.45 260.879 1113.83 260.879 Q1117.21 260.879 1119.13 258.217 Q1121.07 255.532 1121.07 250.833 Z"
     fill="#000000"
     fill-rule="nonzero"
     fill-opacity="1"
     id="path101" />
  <path
     clip-path="url(#clip310)"
     d="M1142.6 240.833 Q1139.18 240.833 1137.18 243.518 Q1135.19 246.18 1135.19 250.833 Q1135.19 255.486 1137.16 258.171 Q1139.15 260.833 1142.6 260.833 Q1146 260.833 1147.99 258.148 Q1149.99 255.463 1149.99 250.833 Q1149.99 246.226 1147.99 243.541 Q1146 240.833 1142.6 240.833 M1142.6 237.222 Q1148.16 237.222 1151.33 240.833 Q1154.5 244.444 1154.5 250.833 Q1154.5 257.199 1151.33 260.833 Q1148.16 264.444 1142.6 264.444 Q1137.02 264.444 1133.85 260.833 Q1130.7 257.199 1130.7 250.833 Q1130.7 244.444 1133.85 240.833 Q1137.02 237.222 1142.6 237.222 Z"
     fill="#000000"
     fill-rule="nonzero"
     fill-opacity="1"
     id="path102" />
  <path
     clip-path="url(#clip310)"
     d="M1181.65 237.847 L1172.28 250.463 L1182.14 263.773 L1177.11 263.773 L1169.57 253.588 L1162.02 263.773 L1157 263.773 L1167.07 250.208 L1157.86 237.847 L1162.88 237.847 L1169.75 247.083 L1176.63 237.847 L1181.65 237.847 Z"
     fill="#000000"
     fill-rule="nonzero"
     fill-opacity="1"
     id="path103" />
  <path
     clip-path="url(#clip310)"
     d="M1188.76 257.893 L1193.64 257.893 L1193.64 263.773 L1188.76 263.773 L1188.76 257.893 Z"
     fill="#000000"
     fill-rule="nonzero"
     fill-opacity="1"
     id="path104" />
  <path
     clip-path="url(#clip310)"
     d="M1213.83 263.773 L1213.83 262.297 Q1216.38 262.297 1216.97 261.993 Q1217.55 261.665 1217.55 260.119 L1217.55 247.26 Q1217.55 245.48 1216.92 245.035 Q1216.31 244.59 1213.83 244.59 L1213.83 243.091 L1220.57 242.575 L1220.57 247.611 Q1222.82 242.575 1227.67 242.575 Q1233.29 242.575 1234.06 247.26 Q1234.88 245.433 1236.59 244.004 Q1238.33 242.575 1241.02 242.575 Q1244.63 242.575 1246.06 244.355 Q1247.11 245.55 1247.32 246.885 Q1247.53 248.22 1247.53 251.687 L1247.53 260.845 Q1247.58 261.852 1248.35 262.086 Q1249.13 262.297 1251.28 262.297 L1251.28 263.773 Q1246.38 263.632 1245.92 263.632 Q1245.54 263.632 1240.48 263.773 L1240.48 262.297 Q1243.04 262.297 1243.62 261.993 Q1244.23 261.665 1244.23 260.119 L1244.23 248.946 Q1244.23 246.51 1243.48 245.082 Q1242.73 243.629 1240.67 243.629 Q1238.19 243.629 1236.2 245.714 Q1234.21 247.799 1234.21 251.312 L1234.21 260.119 Q1234.21 261.665 1234.79 261.993 Q1235.4 262.297 1237.95 262.297 L1237.95 263.773 Q1233.06 263.632 1232.57 263.632 Q1232.19 263.632 1227.16 263.773 L1227.16 262.297 Q1229.71 262.297 1230.29 261.993 Q1230.9 261.665 1230.9 260.119 L1230.9 248.946 Q1230.9 246.51 1230.15 245.082 Q1229.4 243.629 1227.34 243.629 Q1224.86 243.629 1222.87 245.714 Q1220.88 247.799 1220.88 251.312 L1220.88 260.119 Q1220.88 261.665 1221.46 261.993 Q1222.07 262.297 1224.6 262.297 L1224.6 263.773 Q1219.71 263.632 1219.24 263.632 Q1218.86 263.632 1213.83 263.773 Z"
     fill="#000000"
     fill-rule="nonzero"
     fill-opacity="1"
     id="path105" />
  <path
     clip-path="url(#clip310)"
     d="M1253.18 263.773 L1253.18 262.297 Q1255.73 262.297 1256.32 261.993 Q1256.9 261.665 1256.9 260.119 L1256.9 247.213 Q1256.9 245.433 1256.3 245.011 Q1255.71 244.59 1253.37 244.59 L1253.37 243.091 L1260.07 242.575 L1260.07 260.166 Q1260.07 261.594 1260.58 261.946 Q1261.1 262.297 1263.44 262.297 L1263.44 263.773 Q1258.54 263.632 1258.45 263.632 Q1257.79 263.632 1253.18 263.773 M1255.19 234.214 Q1255.19 233.253 1255.92 232.48 Q1256.67 231.684 1257.72 231.684 Q1258.78 231.684 1259.53 232.41 Q1260.28 233.113 1260.28 234.237 Q1260.28 235.338 1259.53 236.064 Q1258.78 236.767 1257.72 236.767 Q1256.62 236.767 1255.9 235.994 Q1255.19 235.221 1255.19 234.214 Z"
     fill="#000000"
     fill-rule="nonzero"
     fill-opacity="1"
     id="path106" />
  <path
     clip-path="url(#clip310)"
     d="M1266.71 263.773 L1266.71 262.297 Q1269.27 262.297 1269.85 261.993 Q1270.44 261.665 1270.44 260.119 L1270.44 247.26 Q1270.44 245.48 1269.81 245.035 Q1269.2 244.59 1266.71 244.59 L1266.71 243.091 L1273.46 242.575 L1273.46 247.611 Q1275.71 242.575 1280.56 242.575 Q1284.16 242.575 1285.59 244.355 Q1286.65 245.55 1286.86 246.885 Q1287.09 248.22 1287.09 251.687 L1287.09 260.845 Q1287.14 261.852 1287.91 262.086 Q1288.69 262.297 1290.84 262.297 L1290.84 263.773 Q1285.94 263.632 1285.45 263.632 Q1285.08 263.632 1280.04 263.773 L1280.04 262.297 Q1282.6 262.297 1283.18 261.993 Q1283.79 261.665 1283.79 260.119 L1283.79 248.946 Q1283.79 246.51 1283.04 245.082 Q1282.29 243.629 1280.23 243.629 Q1277.75 243.629 1275.76 245.714 Q1273.77 247.799 1273.77 251.312 L1273.77 260.119 Q1273.77 261.665 1274.35 261.993 Q1274.96 262.297 1277.49 262.297 L1277.49 263.773 Q1272.59 263.632 1272.13 263.632 Q1271.75 263.632 1266.71 263.773 Z"
     fill="#000000"
     fill-rule="nonzero"
     fill-opacity="1"
     id="path107" />
  <path
     clip-path="url(#clip310)"
     d="M1350.84 243.091 L1344.22 269.769 Q1344.03 270.612 1344.03 270.823 Q1344.03 271.104 1344.1 271.221 Q1344.19 271.362 1344.71 271.479 Q1345.25 271.596 1346.32 271.596 Q1346.72 271.596 1346.86 271.596 Q1347 271.596 1347.21 271.643 Q1347.42 271.689 1347.5 271.807 Q1347.57 271.924 1347.57 272.111 Q1347.57 273.071 1346.72 273.071 Q1345.93 273.071 1344.26 273.001 Q1342.6 272.931 1341.78 272.931 Q1340.98 272.931 1339.37 273.001 Q1337.75 273.071 1336.98 273.071 Q1336.7 273.071 1336.53 272.931 Q1336.37 272.814 1336.37 272.673 L1336.35 272.556 Q1336.35 271.9 1336.6 271.736 Q1336.86 271.596 1337.45 271.596 Q1339.46 271.572 1340.05 271.291 Q1340.63 271.01 1340.91 270.003 L1343.07 261.43 Q1340.19 264.311 1337.4 264.311 Q1334.71 264.311 1332.88 262.203 Q1331.08 260.072 1331.08 256.629 Q1331.08 254.076 1332.08 251.499 Q1333.11 248.923 1334.71 246.979 Q1336.32 245.035 1338.43 243.817 Q1340.54 242.575 1342.62 242.575 Q1343.96 242.575 1345.15 243.348 Q1346.37 244.121 1347.1 245.925 Q1347.71 244.894 1348.83 243.77 Q1349.95 242.622 1350.35 242.622 Q1350.59 242.622 1350.7 242.786 Q1350.84 242.927 1350.84 243.091 M1346.42 247.845 Q1346.42 247.611 1346.23 247.026 Q1346.07 246.44 1345.69 245.644 Q1345.34 244.824 1344.52 244.238 Q1343.7 243.629 1342.62 243.629 Q1341.08 243.629 1339.41 245.128 Q1337.77 246.604 1336.7 249.18 Q1336.02 250.867 1335.25 254.006 Q1334.47 257.144 1334.47 258.737 Q1334.47 259.112 1334.5 259.533 Q1334.54 259.955 1334.73 260.657 Q1334.92 261.36 1335.2 261.899 Q1335.5 262.438 1336.11 262.836 Q1336.72 263.234 1337.54 263.234 Q1339.32 263.234 1341.1 261.712 Q1342.88 260.189 1343.63 258.831 Q1343.72 258.69 1345.06 253.373 Q1346.42 248.056 1346.42 247.845 Z"
     fill="#000000"
     fill-rule="nonzero"
     fill-opacity="1"
     id="path108" />
  <path
     clip-path="url(#clip310)"
     d="M1355.76 275.526 Q1355.76 270.591 1357 267.902 Q1358.74 263.901 1362.84 263.901 Q1363.71 263.901 1364.61 264.147 Q1365.53 264.377 1366.68 265.278 Q1367.84 266.18 1368.55 267.656 Q1369.89 270.509 1369.89 275.526 Q1369.89 280.428 1368.65 283.1 Q1366.83 287.003 1362.81 287.003 Q1361.3 287.003 1359.76 286.232 Q1358.23 285.461 1357.27 283.609 Q1355.76 280.838 1355.76 275.526 M1358.55 275.116 Q1358.55 280.182 1358.91 282.199 Q1359.32 284.379 1360.43 285.33 Q1361.56 286.265 1362.81 286.265 Q1364.15 286.265 1365.27 285.265 Q1366.4 284.248 1366.74 282.068 Q1367.12 279.92 1367.1 275.116 Q1367.1 270.443 1366.78 268.574 Q1366.33 266.393 1365.15 265.524 Q1363.99 264.639 1362.81 264.639 Q1362.37 264.639 1361.89 264.77 Q1361.43 264.901 1360.76 265.278 Q1360.09 265.655 1359.56 266.59 Q1359.05 267.525 1358.81 268.935 Q1358.55 270.755 1358.55 275.116 Z"
     fill="#000000"
     fill-rule="nonzero"
     fill-opacity="1"
     id="path109" />
  <path
     clip-path="url(#clip310)"
     d="M1388.17 256.488 Q1388.22 255.903 1389.13 255.903 L1418.53 255.903 Q1419.91 255.903 1419.93 256.441 Q1419.93 257.027 1418.62 257.004 L1389.46 257.004 Q1388.17 257.027 1388.17 256.488 M1388.17 247.119 Q1388.17 246.534 1389.18 246.557 L1418.48 246.557 Q1419.91 246.557 1419.93 247.119 Q1419.93 247.658 1418.72 247.658 L1389.13 247.658 Q1388.17 247.658 1388.17 247.119 Z"
     fill="#000000"
     fill-rule="nonzero"
     fill-opacity="1"
     id="path110" />
  <path
     clip-path="url(#clip310)"
     d="M1438.42 257.308 Q1438.42 255.879 1439.24 255.2 Q1440.06 254.521 1441.12 254.521 Q1442.22 254.521 1442.99 255.247 Q1443.79 255.95 1443.79 257.191 Q1443.79 258.526 1442.85 259.276 Q1441.94 260.025 1440.63 259.838 Q1441.77 261.758 1443.88 262.625 Q1446.01 263.492 1447.98 263.492 Q1450.04 263.492 1451.7 261.712 Q1453.39 259.931 1453.39 255.575 Q1453.39 251.874 1451.94 249.743 Q1450.51 247.611 1447.68 247.611 L1445.57 247.611 Q1444.84 247.611 1444.63 247.541 Q1444.42 247.471 1444.42 247.072 Q1444.42 246.604 1445.15 246.51 Q1445.87 246.51 1447.02 246.37 Q1449.81 246.276 1451.28 243.864 Q1452.62 241.615 1452.62 238.406 Q1452.62 235.478 1451.21 234.26 Q1449.83 233.019 1448.03 233.019 Q1446.34 233.019 1444.49 233.722 Q1442.64 234.424 1441.63 235.994 Q1444.61 235.994 1444.61 238.406 Q1444.61 239.46 1443.93 240.163 Q1443.27 240.842 1442.17 240.842 Q1441.12 240.842 1440.41 240.186 Q1439.71 239.507 1439.71 238.359 Q1439.71 235.619 1442.15 233.722 Q1444.61 231.824 1448.21 231.824 Q1451.77 231.824 1454.4 233.698 Q1457.04 235.572 1457.04 238.453 Q1457.04 241.287 1455.17 243.606 Q1453.3 245.925 1450.32 246.885 Q1453.98 247.611 1456.15 250.094 Q1458.33 252.553 1458.33 255.575 Q1458.33 259.322 1455.38 262.086 Q1452.43 264.827 1448.12 264.827 Q1444.14 264.827 1441.28 262.672 Q1438.42 260.517 1438.42 257.308 Z"
     fill="#000000"
     fill-rule="nonzero"
     fill-opacity="1"
     id="path111" />
  <path
     clip-path="url(#clip310)"
     d="M1462.37 248.618 Q1462.37 241.076 1466.21 236.462 Q1470.05 231.824 1474.99 231.824 Q1477.87 231.824 1479.46 233.3 Q1481.08 234.752 1481.08 237.001 Q1481.08 238.242 1480.35 238.781 Q1479.63 239.32 1478.88 239.32 Q1478.01 239.32 1477.33 238.734 Q1476.65 238.149 1476.65 237.095 Q1476.65 234.94 1479.3 234.94 Q1478.06 233.019 1475.08 233.019 Q1474.17 233.019 1473.23 233.3 Q1472.3 233.558 1471.08 234.448 Q1469.86 235.338 1468.92 236.743 Q1467.99 238.149 1467.33 240.795 Q1466.68 243.442 1466.68 246.885 L1466.68 248.033 Q1468.64 243.278 1472.67 243.301 Q1476.7 243.301 1479.49 246.37 Q1482.28 249.438 1482.28 253.982 Q1482.28 258.643 1479.37 261.735 Q1476.47 264.827 1472.39 264.827 Q1470.56 264.827 1468.9 264.054 Q1467.26 263.304 1465.72 261.571 Q1464.19 259.838 1463.28 256.512 Q1462.37 253.186 1462.37 248.618 M1466.77 252.928 Q1466.77 257.636 1467.64 259.885 Q1467.78 260.259 1468.08 260.775 Q1468.41 261.29 1468.95 261.969 Q1469.51 262.625 1470.42 263.07 Q1471.34 263.492 1472.39 263.492 Q1475.6 263.492 1477.15 260.376 Q1477.97 258.643 1477.97 253.935 Q1477.97 249.134 1477.1 247.377 Q1475.62 244.402 1472.63 244.402 Q1470.61 244.402 1469.21 245.784 Q1467.82 247.166 1467.28 249.017 Q1466.77 250.867 1466.77 252.928 Z"
     fill="#000000"
     fill-rule="nonzero"
     fill-opacity="1"
     id="path112" />
  <path
     clip-path="url(#clip310)"
     d="M1486.84 263 Q1486.12 262.227 1486.12 261.22 Q1486.12 260.212 1486.84 259.486 Q1487.57 258.737 1488.67 258.737 Q1489.72 258.737 1490.43 259.44 Q1491.15 260.119 1491.15 261.243 Q1491.15 262.344 1490.38 263.07 Q1489.63 263.773 1488.67 263.773 Q1487.57 263.773 1486.84 263 Z"
     fill="#000000"
     fill-rule="nonzero"
     fill-opacity="1"
     id="path113" />
  <path
     clip-path="url(#clip310)"
     d="M1499.31 256.535 Q1499.31 251.171 1506.22 247.705 Q1503.25 245.691 1502.71 245.105 Q1500.6 242.763 1500.6 239.835 Q1500.6 236.486 1503.13 234.167 Q1505.68 231.824 1509.29 231.824 Q1512.73 231.824 1515.33 233.815 Q1517.93 235.806 1517.93 238.968 Q1517.93 243.419 1512.13 246.417 Q1515.97 248.806 1516.88 249.813 Q1519.22 252.413 1519.22 255.715 Q1519.22 259.557 1516.27 262.203 Q1513.32 264.827 1509.24 264.827 Q1505.26 264.827 1502.29 262.508 Q1499.31 260.189 1499.31 256.535 M1501.7 256.535 Q1501.7 259.51 1503.93 261.501 Q1506.18 263.492 1509.29 263.492 Q1512.31 263.492 1514.56 261.758 Q1516.83 260.025 1516.83 257.449 Q1516.83 256.441 1516.48 255.575 Q1516.15 254.708 1515.47 254.029 Q1514.82 253.326 1514.4 253.022 Q1514 252.694 1513.23 252.155 L1507.32 248.431 Q1501.7 251.546 1501.7 256.535 M1502.71 237.961 Q1502.71 240.257 1505.12 241.849 L1511.07 245.691 Q1515.83 242.903 1515.83 238.968 Q1515.83 236.415 1513.88 234.729 Q1511.94 233.019 1509.24 233.019 Q1506.6 233.019 1504.65 234.424 Q1502.71 235.806 1502.71 237.961 Z"
     fill="#000000"
     fill-rule="nonzero"
     fill-opacity="1"
     id="path114" />
  <path
     clip-path="url(#clip310)"
     d="M1521.27 241.217 L1522.84 231.356 L1524.04 231.356 Q1524.18 231.942 1524.41 232.199 Q1524.67 232.457 1526.03 232.668 Q1527.41 232.878 1530.2 232.878 L1541.84 232.878 Q1541.84 233.979 1541.42 234.565 L1534.93 243.676 Q1532.87 246.557 1531.95 251.874 Q1531.41 255.434 1531.44 259.744 L1531.44 262.18 Q1531.44 264.827 1529.21 264.827 Q1527.01 264.827 1527.01 262.18 Q1527.01 253.022 1532.91 244.145 Q1533.55 243.231 1535.87 239.975 Q1538.21 236.72 1538.3 236.579 L1528.37 236.579 Q1524.01 236.579 1523.66 236.86 Q1523.19 237.282 1522.47 241.217 L1521.27 241.217 Z"
     fill="#000000"
     fill-rule="nonzero"
     fill-opacity="1"
     id="path115" />
  <path
     clip-path="url(#clip310)"
     d="M1541.57 263.773 Q1541.57 262.906 1541.64 262.648 Q1541.74 262.391 1542.11 261.993 L1551.32 251.734 Q1556.35 246.065 1556.35 241.123 Q1556.35 237.914 1554.67 235.619 Q1553 233.324 1549.93 233.324 Q1547.83 233.324 1546.05 234.612 Q1544.27 235.9 1543.45 238.195 Q1543.59 238.149 1544.08 238.149 Q1545.27 238.149 1545.93 238.898 Q1546.61 239.648 1546.61 240.655 Q1546.61 241.943 1545.76 242.575 Q1544.94 243.184 1544.13 243.184 Q1543.8 243.184 1543.35 243.114 Q1542.93 243.044 1542.25 242.388 Q1541.57 241.709 1541.57 240.514 Q1541.57 237.165 1544.1 234.495 Q1546.65 231.824 1550.54 231.824 Q1554.95 231.824 1557.83 234.448 Q1560.73 237.048 1560.73 241.123 Q1560.73 242.552 1560.29 243.864 Q1559.86 245.152 1559.28 246.159 Q1558.72 247.166 1557.17 248.782 Q1555.63 250.398 1554.38 251.546 Q1553.14 252.694 1550.36 255.13 L1545.27 260.072 L1553.92 260.072 Q1558.13 260.072 1558.46 259.697 Q1558.93 259.018 1559.51 255.434 L1560.73 255.434 L1559.37 263.773 L1541.57 263.773 Z"
     fill="#000000"
     fill-rule="nonzero"
     fill-opacity="1"
     id="path116" />
  <path
     clip-path="url(#clip310)"
     d="M1565.51 242.622 Q1565.51 240.069 1566.26 238.336 Q1567.01 236.579 1568.58 234.846 Q1571.46 231.824 1575.63 231.824 Q1577.41 231.824 1578.98 232.574 Q1580.57 233.324 1582.07 235.033 Q1583.6 236.72 1584.51 240.069 Q1585.42 243.395 1585.42 247.986 Q1585.42 255.411 1581.82 260.119 Q1578.23 264.827 1573.38 264.827 Q1570.32 264.827 1568.51 263.445 Q1566.71 262.039 1566.71 259.65 Q1566.71 258.409 1567.41 257.894 Q1568.11 257.355 1568.91 257.355 Q1569.78 257.355 1570.46 257.94 Q1571.14 258.503 1571.14 259.557 Q1571.14 260.423 1570.57 261.103 Q1570.03 261.758 1568.63 261.758 Q1570.01 263.492 1573.34 263.492 Q1574.53 263.492 1575.73 262.953 Q1576.92 262.391 1578.21 261.056 Q1579.52 259.697 1580.32 256.863 Q1581.11 254.029 1581.11 250.047 L1581.11 248.525 Q1579.19 253.326 1575.12 253.326 Q1571.09 253.326 1568.3 250.235 Q1565.51 247.143 1565.51 242.622 M1569.82 242.669 Q1569.82 247.424 1570.69 249.18 Q1572.17 252.202 1575.16 252.202 Q1578.09 252.202 1579.54 249.602 Q1581.02 246.979 1581.02 243.583 Q1581.02 238.875 1580.25 236.813 Q1578.82 233.019 1575.63 233.019 Q1572.47 233.019 1570.83 236.041 Q1569.82 237.821 1569.82 242.669 Z"
     fill="#000000"
     fill-rule="nonzero"
     fill-opacity="1"
     id="path117" />
  <path
     clip-path="url(#clip310)"
     d="M1586.37 255.856 L1586.37 254.38 L1601.1 231.871 Q1601.48 231.286 1602.06 231.309 Q1602.6 231.309 1602.72 231.52 Q1602.84 231.731 1602.84 232.551 L1602.84 254.38 L1607.64 254.38 L1607.64 255.856 L1602.84 255.856 L1602.84 260.025 Q1602.84 261.407 1603.4 261.852 Q1603.98 262.297 1606.47 262.297 L1607.47 262.297 L1607.47 263.773 Q1605.51 263.632 1600.96 263.632 Q1596.44 263.632 1594.48 263.773 L1594.48 262.297 L1595.48 262.297 Q1597.97 262.297 1598.55 261.875 Q1599.14 261.43 1599.14 260.025 L1599.14 255.856 L1586.37 255.856 M1587.73 254.38 L1599.42 254.38 L1599.42 236.486 L1587.73 254.38 Z"
     fill="#000000"
     fill-rule="nonzero"
     fill-opacity="1"
     id="path118" />
  <path
     clip-path="url(#clip310)"
     d="M1607.81 255.856 L1607.81 254.38 L1622.55 231.871 Q1622.92 231.286 1623.51 231.309 Q1624.04 231.309 1624.16 231.52 Q1624.28 231.731 1624.28 232.551 L1624.28 254.38 L1629.08 254.38 L1629.08 255.856 L1624.28 255.856 L1624.28 260.025 Q1624.28 261.407 1624.84 261.852 Q1625.43 262.297 1627.91 262.297 L1628.92 262.297 L1628.92 263.773 Q1626.95 263.632 1622.41 263.632 Q1617.88 263.632 1615.92 263.773 L1615.92 262.297 L1616.92 262.297 Q1619.41 262.297 1619.99 261.875 Q1620.58 261.43 1620.58 260.025 L1620.58 255.856 L1607.81 255.856 M1609.17 254.38 L1620.86 254.38 L1620.86 236.486 L1609.17 254.38 Z"
     fill="#000000"
     fill-rule="nonzero"
     fill-opacity="1"
     id="path119" />
  <path
     clip-path="url(#clip310)"
     d="M1631.89 236.392 L1631.89 234.893 Q1637.65 234.893 1640.62 231.824 Q1641.44 231.824 1641.58 232.012 Q1641.72 232.199 1641.72 233.066 L1641.72 259.978 Q1641.72 261.407 1642.43 261.852 Q1643.13 262.297 1646.2 262.297 L1647.72 262.297 L1647.72 263.773 Q1646.03 263.632 1639.94 263.632 Q1633.85 263.632 1632.19 263.773 L1632.19 262.297 L1633.71 262.297 Q1636.73 262.297 1637.46 261.875 Q1638.19 261.43 1638.19 259.978 L1638.19 235.127 Q1635.68 236.392 1631.89 236.392 Z"
     fill="#000000"
     fill-rule="nonzero"
     fill-opacity="1"
     id="path120" />
  <path
     clip-path="url(#clip310)"
     d="M1651.41 257.308 Q1651.41 255.879 1652.23 255.2 Q1653.05 254.521 1654.1 254.521 Q1655.2 254.521 1655.97 255.247 Q1656.77 255.95 1656.77 257.191 Q1656.77 258.526 1655.83 259.276 Q1654.92 260.025 1653.61 259.838 Q1654.76 261.758 1656.86 262.625 Q1659 263.492 1660.96 263.492 Q1663.02 263.492 1664.69 261.712 Q1666.37 259.931 1666.37 255.575 Q1666.37 251.874 1664.92 249.743 Q1663.49 247.611 1660.66 247.611 L1658.55 247.611 Q1657.82 247.611 1657.61 247.541 Q1657.4 247.471 1657.4 247.072 Q1657.4 246.604 1658.13 246.51 Q1658.86 246.51 1660 246.37 Q1662.79 246.276 1664.27 243.864 Q1665.6 241.615 1665.6 238.406 Q1665.6 235.478 1664.2 234.26 Q1662.81 233.019 1661.01 233.019 Q1659.32 233.019 1657.47 233.722 Q1655.62 234.424 1654.62 235.994 Q1657.59 235.994 1657.59 238.406 Q1657.59 239.46 1656.91 240.163 Q1656.26 240.842 1655.15 240.842 Q1654.1 240.842 1653.4 240.186 Q1652.7 239.507 1652.7 238.359 Q1652.7 235.619 1655.13 233.722 Q1657.59 231.824 1661.2 231.824 Q1664.76 231.824 1667.38 233.698 Q1670.03 235.572 1670.03 238.453 Q1670.03 241.287 1668.15 243.606 Q1666.28 245.925 1663.31 246.885 Q1666.96 247.611 1669.14 250.094 Q1671.32 252.553 1671.32 255.575 Q1671.32 259.322 1668.36 262.086 Q1665.41 264.827 1661.1 264.827 Q1657.12 264.827 1654.26 262.672 Q1651.41 260.517 1651.41 257.308 Z"
     fill="#000000"
     fill-rule="nonzero"
     fill-opacity="1"
     id="path121" />
  <path
     clip-path="url(#clip310)"
     d="M1674.08 236.392 L1674.08 234.893 Q1679.84 234.893 1682.81 231.824 Q1683.63 231.824 1683.77 232.012 Q1683.91 232.199 1683.91 233.066 L1683.91 259.978 Q1683.91 261.407 1684.62 261.852 Q1685.32 262.297 1688.39 262.297 L1689.91 262.297 L1689.91 263.773 Q1688.22 263.632 1682.13 263.632 Q1676.04 263.632 1674.38 263.773 L1674.38 262.297 L1675.9 262.297 Q1678.93 262.297 1679.65 261.875 Q1680.38 261.43 1680.38 259.978 L1680.38 235.127 Q1677.87 236.392 1674.08 236.392 Z"
     fill="#000000"
     fill-rule="nonzero"
     fill-opacity="1"
     id="path122" />
  <path
     clip-path="url(#clip310)"
     d="M1693.6 257.308 Q1693.6 255.879 1694.42 255.2 Q1695.24 254.521 1696.29 254.521 Q1697.39 254.521 1698.17 255.247 Q1698.96 255.95 1698.96 257.191 Q1698.96 258.526 1698.03 259.276 Q1697.11 260.025 1695.8 259.838 Q1696.95 261.758 1699.06 262.625 Q1701.19 263.492 1703.16 263.492 Q1705.22 263.492 1706.88 261.712 Q1708.57 259.931 1708.57 255.575 Q1708.57 251.874 1707.11 249.743 Q1705.69 247.611 1702.85 247.611 L1700.74 247.611 Q1700.02 247.611 1699.81 247.541 Q1699.6 247.471 1699.6 247.072 Q1699.6 246.604 1700.32 246.51 Q1701.05 246.51 1702.2 246.37 Q1704.98 246.276 1706.46 243.864 Q1707.79 241.615 1707.79 238.406 Q1707.79 235.478 1706.39 234.26 Q1705.01 233.019 1703.2 233.019 Q1701.52 233.019 1699.67 233.722 Q1697.82 234.424 1696.81 235.994 Q1699.78 235.994 1699.78 238.406 Q1699.78 239.46 1699.1 240.163 Q1698.45 240.842 1697.35 240.842 Q1696.29 240.842 1695.59 240.186 Q1694.89 239.507 1694.89 238.359 Q1694.89 235.619 1697.32 233.722 Q1699.78 231.824 1703.39 231.824 Q1706.95 231.824 1709.57 233.698 Q1712.22 235.572 1712.22 238.453 Q1712.22 241.287 1710.35 243.606 Q1708.47 245.925 1705.5 246.885 Q1709.15 247.611 1711.33 250.094 Q1713.51 252.553 1713.51 255.575 Q1713.51 259.322 1710.56 262.086 Q1707.61 264.827 1703.3 264.827 Q1699.31 264.827 1696.46 262.672 Q1693.6 260.517 1693.6 257.308 Z"
     fill="#000000"
     fill-rule="nonzero"
     fill-opacity="1"
     id="path123" />
  <path
     clip-path="url(#clip310)"
     d="M1717.54 256.043 Q1717.54 254.615 1718.31 254.076 Q1719.09 253.514 1719.91 253.514 Q1721.01 253.514 1721.64 254.216 Q1722.3 254.896 1722.3 255.856 Q1722.3 256.816 1721.64 257.519 Q1721.01 258.198 1719.91 258.198 Q1719.37 258.198 1719.09 258.104 Q1719.72 260.306 1721.64 261.899 Q1723.58 263.492 1726.14 263.492 Q1729.35 263.492 1731.27 260.376 Q1732.41 258.362 1732.41 253.795 Q1732.41 249.766 1731.55 247.752 Q1730.21 244.683 1727.47 244.683 Q1723.58 244.683 1721.29 248.033 Q1721.01 248.454 1720.68 248.478 Q1720.21 248.478 1720.09 248.22 Q1720 247.939 1720 247.213 L1720 233.019 Q1720 231.871 1720.47 231.871 Q1720.66 231.871 1721.05 232.012 Q1724.08 233.347 1727.43 233.37 Q1730.87 233.37 1733.96 231.965 Q1734.19 231.824 1734.33 231.824 Q1734.8 231.824 1734.83 232.363 Q1734.83 232.551 1734.43 233.113 Q1734.05 233.651 1733.23 234.378 Q1732.41 235.08 1731.36 235.759 Q1730.31 236.439 1728.76 236.907 Q1727.24 237.352 1725.55 237.352 Q1723.54 237.352 1721.48 236.72 L1721.48 246.065 Q1723.96 243.629 1727.57 243.629 Q1731.41 243.629 1734.05 246.721 Q1736.7 249.813 1736.7 254.123 Q1736.7 258.643 1733.56 261.735 Q1730.45 264.827 1726.23 264.827 Q1722.39 264.827 1719.95 262.086 Q1717.54 259.346 1717.54 256.043 Z"
     fill="#000000"
     fill-rule="nonzero"
     fill-opacity="1"
     id="path124" />
  <path
     clip-path="url(#clip310)"
     d="M1741.48 257.308 Q1741.48 255.879 1742.3 255.2 Q1743.12 254.521 1744.18 254.521 Q1745.28 254.521 1746.05 255.247 Q1746.85 255.95 1746.85 257.191 Q1746.85 258.526 1745.91 259.276 Q1745 260.025 1743.68 259.838 Q1744.83 261.758 1746.94 262.625 Q1749.07 263.492 1751.04 263.492 Q1753.1 263.492 1754.76 261.712 Q1756.45 259.931 1756.45 255.575 Q1756.45 251.874 1755 249.743 Q1753.57 247.611 1750.73 247.611 L1748.63 247.611 Q1747.9 247.611 1747.69 247.541 Q1747.48 247.471 1747.48 247.072 Q1747.48 246.604 1748.21 246.51 Q1748.93 246.51 1750.08 246.37 Q1752.87 246.276 1754.34 243.864 Q1755.68 241.615 1755.68 238.406 Q1755.68 235.478 1754.27 234.26 Q1752.89 233.019 1751.09 233.019 Q1749.4 233.019 1747.55 233.722 Q1745.7 234.424 1744.69 235.994 Q1747.67 235.994 1747.67 238.406 Q1747.67 239.46 1746.99 240.163 Q1746.33 240.842 1745.23 240.842 Q1744.18 240.842 1743.47 240.186 Q1742.77 239.507 1742.77 238.359 Q1742.77 235.619 1745.21 233.722 Q1747.67 231.824 1751.27 231.824 Q1754.83 231.824 1757.46 233.698 Q1760.1 235.572 1760.1 238.453 Q1760.1 241.287 1758.23 243.606 Q1756.36 245.925 1753.38 246.885 Q1757.04 247.611 1759.21 250.094 Q1761.39 252.553 1761.39 255.575 Q1761.39 259.322 1758.44 262.086 Q1755.49 264.827 1751.18 264.827 Q1747.2 264.827 1744.34 262.672 Q1741.48 260.517 1741.48 257.308 Z"
     fill="#000000"
     fill-rule="nonzero"
     fill-opacity="1"
     id="path125" />
  <path
     clip-path="url(#clip310)"
     d="M1765.43 257.308 Q1765.43 255.879 1766.24 255.2 Q1767.06 254.521 1768.12 254.521 Q1769.22 254.521 1769.99 255.247 Q1770.79 255.95 1770.79 257.191 Q1770.79 258.526 1769.85 259.276 Q1768.94 260.025 1767.63 259.838 Q1768.77 261.758 1770.88 262.625 Q1773.01 263.492 1774.98 263.492 Q1777.04 263.492 1778.71 261.712 Q1780.39 259.931 1780.39 255.575 Q1780.39 251.874 1778.94 249.743 Q1777.51 247.611 1774.68 247.611 L1772.57 247.611 Q1771.84 247.611 1771.63 247.541 Q1771.42 247.471 1771.42 247.072 Q1771.42 246.604 1772.15 246.51 Q1772.87 246.51 1774.02 246.37 Q1776.81 246.276 1778.28 243.864 Q1779.62 241.615 1779.62 238.406 Q1779.62 235.478 1778.21 234.26 Q1776.83 233.019 1775.03 233.019 Q1773.34 233.019 1771.49 233.722 Q1769.64 234.424 1768.63 235.994 Q1771.61 235.994 1771.61 238.406 Q1771.61 239.46 1770.93 240.163 Q1770.27 240.842 1769.17 240.842 Q1768.12 240.842 1767.42 240.186 Q1766.71 239.507 1766.71 238.359 Q1766.71 235.619 1769.15 233.722 Q1771.61 231.824 1775.22 231.824 Q1778.78 231.824 1781.4 233.698 Q1784.05 235.572 1784.05 238.453 Q1784.05 241.287 1782.17 243.606 Q1780.3 245.925 1777.32 246.885 Q1780.98 247.611 1783.16 250.094 Q1785.33 252.553 1785.33 255.575 Q1785.33 259.322 1782.38 262.086 Q1779.43 264.827 1775.12 264.827 Q1771.14 264.827 1768.28 262.672 Q1765.43 260.517 1765.43 257.308 Z"
     fill="#000000"
     fill-rule="nonzero"
     fill-opacity="1"
     id="path126" />
  <path
     clip-path="url(#clip310)"
     d="M1789.37 256.535 Q1789.37 251.171 1796.28 247.705 Q1793.3 245.691 1792.76 245.105 Q1790.66 242.763 1790.66 239.835 Q1790.66 236.486 1793.18 234.167 Q1795.74 231.824 1799.34 231.824 Q1802.79 231.824 1805.39 233.815 Q1807.99 235.806 1807.99 238.968 Q1807.99 243.419 1802.18 246.417 Q1806.02 248.806 1806.93 249.813 Q1809.28 252.413 1809.28 255.715 Q1809.28 259.557 1806.32 262.203 Q1803.37 264.827 1799.3 264.827 Q1795.32 264.827 1792.34 262.508 Q1789.37 260.189 1789.37 256.535 M1791.76 256.535 Q1791.76 259.51 1793.98 261.501 Q1796.23 263.492 1799.34 263.492 Q1802.37 263.492 1804.62 261.758 Q1806.89 260.025 1806.89 257.449 Q1806.89 256.441 1806.54 255.575 Q1806.21 254.708 1805.53 254.029 Q1804.87 253.326 1804.45 253.022 Q1804.05 252.694 1803.28 252.155 L1797.38 248.431 Q1791.76 251.546 1791.76 256.535 M1792.76 237.961 Q1792.76 240.257 1795.18 241.849 L1801.13 245.691 Q1805.88 242.903 1805.88 238.968 Q1805.88 236.415 1803.94 234.729 Q1801.99 233.019 1799.3 233.019 Q1796.65 233.019 1794.71 234.424 Q1792.76 235.806 1792.76 237.961 Z"
     fill="#000000"
     fill-rule="nonzero"
     fill-opacity="1"
     id="path127" />
</svg>
