<?xml version="1.0" encoding="UTF-8" standalone="no"?>
<svg
   width="600"
   height="400"
   viewBox="0 0 2400 1600"
   version="1.1"
   id="svg141"
   sodipodi:docname="brand.svg"
   inkscape:version="1.3 (0e150ed6c4, 2023-07-21)"
   xmlns:inkscape="http://www.inkscape.org/namespaces/inkscape"
   xmlns:sodipodi="http://sodipodi.sourceforge.net/DTD/sodipodi-0.dtd"
   xmlns="http://www.w3.org/2000/svg"
   xmlns:svg="http://www.w3.org/2000/svg">
  <sodipodi:namedview
     id="namedview141"
     pagecolor="#ffffff"
     bordercolor="#666666"
     borderopacity="1.0"
     inkscape:showpageshadow="2"
     inkscape:pageopacity="0.0"
     inkscape:pagecheckerboard="0"
     inkscape:deskcolor="#d1d1d1"
     inkscape:zoom="1.3116667"
     inkscape:cx="343.83736"
     inkscape:cy="211.1817"
     inkscape:window-width="1596"
     inkscape:window-height="2134"
     inkscape:window-x="1121"
     inkscape:window-y="24"
     inkscape:window-maximized="0"
     inkscape:current-layer="svg141" />
  <defs
     id="defs1">
    <clipPath
       id="clip340">
      <rect
         x="0"
         y="0"
         width="2400"
         height="1600"
         id="rect1" />
    </clipPath>
  </defs>
  <defs
     id="defs2">
    <clipPath
       id="clip341">
      <rect
         x="480"
         y="0"
         width="1681"
         height="1600"
         id="rect2" />
    </clipPath>
  </defs>
  <defs
     id="defs3">
    <clipPath
       id="clip342">
      <rect
         x="234"
         y="47"
         width="2120"
         height="1377"
         id="rect3" />
    </clipPath>
  </defs>
  <polyline
     clip-path="url(#clip342)"
     style="stroke:#000000; stroke-linecap:round; stroke-linejoin:round; stroke-width:2; stroke-opacity:0.1; fill:none"
     points="234.125,47.2441 234.125,1423.18 "
     id="polyline3" />
  <polyline
     clip-path="url(#clip340)"
     style="stroke:#000000; stroke-linecap:round; stroke-linejoin:round; stroke-width:4; stroke-opacity:1; fill:none"
     points="234.125,1423.18 234.125,1404.28 "
     id="polyline8" />
  <circle
     clip-path="url(#clip342)"
     cx="1497.85"
     cy="752.631"
     r="14.4"
     fill="#009af9"
     fill-rule="evenodd"
     fill-opacity="1"
     stroke="#000000"
     stroke-opacity="1"
     stroke-width="3.2"
     id="circle70" />
  <polyline
     clip-path="url(#clip342)"
     style="fill:none;stroke:#ec9d82;stroke-width:280;stroke-linecap:round;stroke-linejoin:round;stroke-dasharray:none;stroke-opacity:1;paint-order:markers stroke fill"
     points="234.125,47.2441 235.867,47.7837 237.608,48.3233 239.35,48.8628 241.092,49.4024 242.834,49.942 244.577,50.4816 246.319,51.0212 248.062,51.5608 249.805,52.1003 251.548,52.6399 253.291,53.1795 255.034,53.7191 256.777,54.2587 258.519,54.7983 260.26,55.3378 262.002,55.8774 263.743,56.417 265.485,56.9566 267.226,57.4962 268.967,58.0357 270.707,58.5753 272.448,59.1149 274.188,59.6545 275.928,60.1941 277.668,60.7337 279.407,61.2732 281.146,61.8128 282.884,62.3524 284.622,62.892 286.36,63.4316 288.097,63.9712 289.834,64.5107 291.57,65.0503 293.305,65.5899 295.04,66.1295 296.774,66.6691 298.508,67.2087 300.241,67.7482 301.973,68.2878 303.705,68.8274 305.435,69.367 307.166,69.9066 308.895,70.4461 310.623,70.9857 312.351,71.5253 314.077,72.0649 315.803,72.6045 317.528,73.1441 319.252,73.6836 320.975,74.2232 322.697,74.7628 324.418,75.3024 326.138,75.842 327.857,76.3816 329.575,76.9211 331.292,77.4607 333.007,78.0003 334.722,78.5399 336.435,79.0795 338.147,79.6191 339.858,80.1586 341.567,80.6982 343.276,81.2378 344.983,81.7774 346.689,82.317 348.393,82.8565 350.096,83.3961 351.798,83.9357 353.499,84.4753 355.198,85.0149 356.895,85.5545 358.591,86.094 360.286,86.6336 361.979,87.1732 363.671,87.7128 365.361,88.2524 367.05,88.792 368.737,89.3315 370.422,89.8711 372.106,90.4107 373.788,90.9503 375.469,91.4899 377.148,92.0295 378.825,92.569 380.501,93.1086 382.175,93.6482 383.847,94.1878 385.517,94.7274 387.186,95.267 388.852,95.8065 390.518,96.3461 392.181,96.8857 393.842,97.4253 395.502,97.9649 397.159,98.5044 398.815,99.044 400.469,99.5836 402.121,100.123 403.771,100.663 405.419,101.202 407.065,101.742 408.709,102.282 410.351,102.821 411.991,103.361 413.629,103.9 415.265,104.44 416.899,104.979 418.531,105.519 420.16,106.059 421.788,106.598 423.413,107.138 425.037,107.677 426.658,108.217 428.277,108.757 429.894,109.296 431.508,109.836 433.121,110.375 434.731,110.915 436.339,111.454 437.944,111.994 439.548,112.534 441.149,113.073 442.748,113.613 444.344,114.152 445.938,114.692 447.53,115.232 449.119,115.771 450.707,116.311 452.291,116.85 453.874,117.39 455.454,117.929 457.031,118.469 458.606,119.009 460.179,119.548 461.749,120.088 463.317,120.627 464.882,121.167 466.445,121.706 468.005,122.246 469.563,122.786 471.118,123.325 472.671,123.865 474.221,124.404 475.768,124.944 477.313,125.484 478.856,126.023 480.396,126.563 481.933,127.102 483.467,127.642 484.999,128.181 486.529,128.721 488.055,129.261 489.58,129.8 491.101,130.34 492.62,130.879 494.136,131.419 495.649,131.959 497.16,132.498 498.668,133.038 500.173,133.577 501.85,134.117 503.526,134.656 505.199,135.196 506.87,135.736 508.539,136.275 510.206,136.815 511.871,137.354 513.533,137.894 515.193,138.434 516.851,138.973 518.506,139.513 520.159,140.052 521.81,140.592 523.458,141.131 525.104,141.671 526.748,142.211 528.39,142.75 530.029,143.29 531.666,143.829 533.3,144.369 534.932,144.909 536.562,145.448 538.189,145.988 539.815,146.527 541.437,147.067 543.058,147.606 544.676,148.146 546.291,148.686 547.904,149.225 549.515,149.765 551.124,150.304 552.73,150.844 554.333,151.384 555.935,151.923 557.533,152.463 559.13,153.002 560.724,153.542 562.315,154.081 563.905,154.621 565.491,155.161 567.076,155.7 568.658,156.24 570.237,156.779 571.814,157.319 573.389,157.859 574.961,158.398 576.53,158.938 578.097,159.477 579.662,160.017 581.224,160.556 582.784,161.096 584.342,161.636 585.896,162.175 587.449,162.715 588.999,163.254 590.546,163.794 592.091,164.334 593.634,164.873 595.174,165.413 596.711,165.952 598.246,166.492 599.778,167.031 601.308,167.571 602.836,168.111 604.361,168.65 605.883,169.19 607.403,169.729 608.921,170.269 610.435,170.809 611.948,171.348 613.481,171.888 615.013,172.427 616.543,172.967 618.07,173.506 619.595,174.046 621.118,174.586 622.638,175.125 624.156,175.665 625.672,176.204 627.185,176.744 628.696,177.284 630.205,177.823 631.712,178.363 633.216,178.902 634.718,179.442 636.217,179.981 637.714,180.521 639.209,181.061 640.701,181.6 642.191,182.14 643.679,182.679 645.164,183.219 646.647,183.759 648.128,184.298 649.606,184.838 651.082,185.377 652.556,185.917 654.027,186.456 655.495,186.996 656.962,187.536 658.426,188.075 659.887,188.615 661.346,189.154 662.803,189.694 664.258,190.233 665.71,190.773 667.159,191.313 668.606,191.852 670.051,192.392 671.494,192.931 672.933,193.471 674.371,194.011 675.806,194.55 677.239,195.09 678.669,195.629 680.097,196.169 681.522,196.708 682.945,197.248 684.366,197.788 685.784,198.327 687.2,198.867 688.613,199.406 690.024,199.946 691.432,200.486 692.838,201.025 694.241,201.565 695.642,202.104 697.041,202.644 698.437,203.183 699.83,203.723 701.222,204.263 702.61,204.802 703.997,205.342 705.38,205.881 706.762,206.421 708.14,206.961 709.517,207.5 710.891,208.04 712.262,208.579 713.631,209.119 714.997,209.658 716.361,210.198 717.723,210.738 719.082,211.277 720.438,211.817 721.792,212.356 723.144,212.896 724.493,213.436 725.84,213.975 727.184,214.515 728.525,215.054 729.864,215.594 731.201,216.133 732.535,216.673 733.866,217.213 735.195,217.752 736.522,218.292 737.846,218.831 739.167,219.371 740.486,219.911 741.803,220.45 743.117,220.99 744.428,221.529 745.737,222.069 747.044,222.608 748.348,223.148 749.649,223.688 750.948,224.227 752.244,224.767 753.538,225.306 754.829,225.846 756.118,226.386 757.404,226.925 758.688,227.465 759.969,228.004 761.248,228.544 762.524,229.083 763.797,229.623 765.068,230.163 766.337,230.702 767.603,231.242 768.866,231.781 770.127,232.321 771.385,232.861 772.641,233.4 773.894,233.94 775.145,234.479 776.393,235.019 777.639,235.558 778.882,236.098 780.122,236.638 781.36,237.177 782.596,237.717 783.829,238.256 785.059,238.796 786.287,239.336 787.512,239.875 788.734,240.415 789.954,240.954 791.172,241.494 792.387,242.033 793.599,242.573 794.809,243.113 796.016,243.652 797.221,244.192 798.423,244.731 799.623,245.271 800.82,245.811 802.014,246.35 803.206,246.89 804.395,247.429 805.582,247.969 806.766,248.508 807.948,249.048 809.127,249.588 810.303,250.127 811.477,250.667 812.648,251.206 813.817,251.746 814.983,252.286 816.147,252.825 817.308,253.365 818.466,253.904 819.622,254.444 820.776,254.983 821.926,255.523 823.075,256.063 824.22,256.602 825.363,257.142 826.503,257.681 827.268,258.221 828.032,258.76 828.795,259.3 829.557,259.84 830.32,260.379 831.082,260.919 831.845,261.458 832.607,261.998 833.37,262.538 834.133,263.077 834.895,263.617 835.658,264.156 836.421,264.696 837.183,265.235 837.946,265.775 838.709,266.315 839.472,266.854 840.234,267.394 840.997,267.933 841.76,268.473 842.523,269.013 843.286,269.552 844.049,270.092 844.812,270.631 845.575,271.171 846.337,271.71 847.1,272.25 847.863,272.79 848.626,273.329 849.389,273.869 850.152,274.408 850.916,274.948 851.679,275.488 852.442,276.027 853.205,276.567 853.968,277.106 854.731,277.646 855.494,278.185 856.257,278.725 857.021,279.265 857.784,279.804 858.547,280.344 859.31,280.883 860.074,281.423 860.837,281.963 861.6,282.502 862.363,283.042 863.127,283.581 863.89,284.121 864.653,284.66 865.417,285.2 866.18,285.74 866.943,286.279 867.707,286.819 868.47,287.358 869.234,287.898 869.997,288.438 870.761,288.977 871.524,289.517 872.287,290.056 873.051,290.596 873.814,291.135 874.578,291.675 875.341,292.215 876.105,292.754 876.869,293.294 877.632,293.833 878.396,294.373 879.159,294.913 879.923,295.452 880.686,295.992 881.45,296.531 882.214,297.071 882.977,297.61 883.741,298.15 884.505,298.69 885.268,299.229 886.032,299.769 886.796,300.308 887.559,300.848 888.323,301.388 889.087,301.927 889.85,302.467 890.614,303.006 891.378,303.546 892.142,304.085 892.905,304.625 893.669,305.165 894.433,305.704 895.197,306.244 895.96,306.783 896.724,307.323 897.488,307.863 898.252,308.402 899.015,308.942 899.779,309.481 900.543,310.021 901.307,310.56 902.071,311.1 902.816,311.64 903.562,312.179 904.308,312.719 905.053,313.258 905.799,313.798 906.544,314.338 907.29,314.877 908.035,315.417 908.781,315.956 909.527,316.496 910.272,317.035 911.018,317.575 911.763,318.115 912.509,318.654 913.254,319.194 914,319.733 914.745,320.273 915.491,320.812 916.237,321.352 916.982,321.892 917.728,322.431 918.473,322.971 919.219,323.51 919.964,324.05 920.71,324.59 921.455,325.129 922.201,325.669 922.946,326.208 923.692,326.748 924.437,327.287 925.182,327.827 925.928,328.367 926.673,328.906 927.419,329.446 928.164,329.985 928.91,330.525 929.655,331.065 930.401,331.604 931.146,332.144 931.891,332.683 932.637,333.223 933.382,333.762 934.127,334.302 934.873,334.842 935.618,335.381 936.363,335.921 937.109,336.46 937.854,337 938.599,337.54 939.345,338.079 940.09,338.619 940.835,339.158 941.581,339.698 942.326,340.237 943.071,340.777 943.816,341.317 944.562,341.856 945.307,342.396 946.052,342.935 946.797,343.475 947.542,344.015 948.288,344.554 949.033,345.094 949.778,345.633 950.523,346.173 951.268,346.712 952.013,347.252 952.758,347.792 953.504,348.331 954.249,348.871 954.994,349.41 955.739,349.95 956.484,350.49 957.229,351.029 957.974,351.569 958.719,352.108 959.464,352.648 960.209,353.187 960.954,353.727 961.699,354.267 962.444,354.806 963.189,355.346 963.934,355.885 964.678,356.425 965.423,356.965 966.168,357.504 966.913,358.044 967.658,358.583 968.403,359.123 969.148,359.662 969.892,360.202 970.637,360.742 971.382,361.281 972.127,361.821 972.871,362.36 973.616,362.9 974.361,363.44 975.105,363.979 975.85,364.519 976.595,365.058 977.339,365.598 978.084,366.137 978.829,366.677 979.573,367.217 980.318,367.756 981.062,368.296 981.807,368.835 982.551,369.375 983.296,369.915 984.04,370.454 984.785,370.994 985.529,371.533 986.274,372.073 987.018,372.612 987.763,373.152 988.507,373.692 989.251,374.231 989.996,374.771 990.74,375.31 991.484,375.85 992.229,376.39 992.973,376.929 993.717,377.469 994.461,378.008 995.206,378.548 995.95,379.087 996.694,379.627 997.438,380.167 998.182,380.706 998.926,381.246 999.67,381.785 1000.41,382.325 1001.16,382.865 1001.9,383.404 1002.65,383.944 1003.39,384.483 1004.13,385.023 1004.88,385.562 1005.62,386.102 1006.37,386.642 1007.11,387.181 1007.85,387.721 1008.6,388.26 1009.34,388.8 1010.09,389.339 1010.83,389.879 1011.57,390.419 1012.32,390.958 1013.06,391.498 1013.8,392.037 1014.55,392.577 1015.29,393.117 1016.04,393.656 1016.78,394.196 1017.52,394.735 1018.27,395.275 1019.01,395.814 1019.75,396.354 1020.5,396.894 1021.24,397.433 1021.98,397.973 1022.73,398.512 1023.47,399.052 1024.21,399.592 1024.96,400.131 1025.7,400.671 1026.44,401.21 1027.19,401.75 1027.93,402.289 1028.67,402.829 1029.42,403.369 1030.16,403.908 1030.9,404.448 1031.65,404.987 1032.39,405.527 1033.13,406.067 1033.88,406.606 1034.62,407.146 1035.36,407.685 1036.1,408.225 1036.85,408.764 1037.59,409.304 1038.33,409.844 1039.08,410.383 1039.82,410.923 1040.56,411.462 1041.3,412.002 1042.05,412.542 1042.79,413.081 1043.53,413.621 1044.28,414.16 1045.02,414.7 1045.76,415.239 1046.5,415.779 1047.25,416.319 1047.99,416.858 1048.73,417.398 1049.47,417.937 1050.22,418.477 1050.96,419.017 1051.7,419.556 1052.44,420.096 1053.19,420.635 1053.93,421.175 1054.67,421.714 1055.41,422.254 1056.15,422.794 1056.9,423.333 1057.64,423.873 1058.38,424.412 1059.12,424.952 1059.87,425.492 1060.61,426.031 1061.35,426.571 1062.09,427.11 1062.83,427.65 1063.58,428.189 1064.32,428.729 1065.06,429.269 1065.8,429.808 1066.54,430.348 1067.28,430.887 1068.03,431.427 1068.77,431.967 1069.51,432.506 1070.25,433.046 1070.99,433.585 1071.74,434.125 1072.48,434.664 1073.22,435.204 1073.96,435.744 1074.7,436.283 1075.44,436.823 1076.18,437.362 1076.93,437.902 1077.67,438.442 1078.41,438.981 1079.15,439.521 1079.89,440.06 1080.63,440.6 1081.37,441.139 1082.11,441.679 1082.86,442.219 1083.6,442.758 1084.34,443.298 1085.08,443.837 1085.82,444.377 1086.56,444.917 1087.3,445.456 1088.04,445.996 1088.78,446.535 1089.52,447.075 1090.27,447.614 1091.01,448.154 1091.75,448.694 1092.49,449.233 1093.23,449.773 1093.97,450.312 1094.71,450.852 1095.45,451.391 1096.19,451.931 1096.93,452.471 1097.67,453.01 1098.41,453.55 1099.15,454.089 1099.89,454.629 1100.63,455.169 1101.37,455.708 1102.11,456.248 1102.86,456.787 1103.6,457.327 1104.34,457.866 1105.08,458.406 1105.82,458.946 1106.56,459.485 1107.3,460.025 1108.04,460.564 1108.78,461.104 1109.52,461.644 1110.26,462.183 1111,462.723 1111.74,463.262 1112.48,463.802 1113.22,464.341 1113.95,464.881 1114.69,465.421 1115.43,465.96 1116.17,466.5 1116.91,467.039 1117.65,467.579 1118.39,468.119 1119.13,468.658 1119.87,469.198 1120.61,469.737 1121.35,470.277 1122.09,470.816 1122.83,471.356 1123.57,471.896 1124.31,472.435 1125.05,472.975 1125.79,473.514 1126.52,474.054 1127.26,474.594 1128,475.133 1128.74,475.673 1129.48,476.212 1130.22,476.752 1130.96,477.291 1131.7,477.831 1132.44,478.371 1133.18,478.91 1133.91,479.45 1134.65,479.989 1135.39,480.529 1136.13,481.069 1136.87,481.608 1137.61,482.148 1138.35,482.687 1139.08,483.227 1139.82,483.766 1140.56,484.306 1141.3,484.846 1142.04,485.385 1142.78,485.925 1143.51,486.464 1144.25,487.004 1144.99,487.544 1145.73,488.083 1146.47,488.623 1147.2,489.162 1147.94,489.702 1148.68,490.241 1149.42,490.781 1150.16,491.321 1150.89,491.86 1151.63,492.4 1152.37,492.939 1153.11,493.479 1153.85,494.019 1154.58,494.558 1155.32,495.098 1156.06,495.637 1156.8,496.177 1157.53,496.716 1158.27,497.256 1159.01,497.796 1159.75,498.335 1160.48,498.875 1161.22,499.414 1161.96,499.954 1162.69,500.494 1163.43,501.033 1164.17,501.573 1164.91,502.112 1165.64,502.652 1166.38,503.191 1167.12,503.731 1167.85,504.271 1168.59,504.81 1169.33,505.35 1170.06,505.889 1170.8,506.429 1171.54,506.969 1172.27,507.508 1173.01,508.048 1173.75,508.587 1174.48,509.127 1175.22,509.666 1175.96,510.206 1176.69,510.746 1177.43,511.285 1178.17,511.825 1178.9,512.364 1179.64,512.904 1180.38,513.444 1181.11,513.983 1181.85,514.523 1182.58,515.062 1183.32,515.602 1184.06,516.141 1184.79,516.681 1185.53,517.221 1186.26,517.76 1187,518.3 1187.73,518.839 1188.47,519.379 1189.21,519.918 1189.94,520.458 1190.68,520.998 1191.41,521.537 1192.15,522.077 1192.88,522.616 1193.62,523.156 1194.35,523.696 1195.09,524.235 1195.83,524.775 1196.56,525.314 1197.3,525.854 1198.03,526.393 1198.77,526.933 1199.5,527.473 1200.24,528.012 1200.97,528.552 1201.71,529.091 1202.44,529.631 1203.18,530.171 1203.91,530.71 1204.64,531.25 1205.38,531.789 1206.11,532.329 1206.85,532.868 1207.58,533.408 1208.32,533.948 1209.05,534.487 1209.79,535.027 1210.52,535.566 1211.26,536.106 1211.99,536.646 1212.72,537.185 1213.46,537.725 1214.19,538.264 1214.93,538.804 1215.66,539.343 1216.39,539.883 1217.13,540.423 1217.86,540.962 1218.6,541.502 1219.33,542.041 1220.06,542.581 1220.8,543.121 1221.53,543.66 1222.26,544.2 1223,544.739 1223.73,545.279 1224.47,545.818 1225.2,546.358 1225.93,546.898 1226.67,547.437 1227.4,547.977 1228.13,548.516 1228.87,549.056 1229.6,549.596 1230.33,550.135 1231.06,550.675 1231.8,551.214 1232.53,551.754 1233.26,552.293 1234,552.833 1234.73,553.373 1235.46,553.912 1236.19,554.452 1236.93,554.991 1237.66,555.531 1238.39,556.071 1239.13,556.61 1239.86,557.15 1240.59,557.689 1241.32,558.229 1242.05,558.768 1242.79,559.308 1243.52,559.848 1244.25,560.387 1244.98,560.927 1245.72,561.466 1246.45,562.006 1247.18,562.546 1247.91,563.085 1248.64,563.625 1249.38,564.164 1250.11,564.704 1250.84,565.243 1251.57,565.783 1252.3,566.323 1253.03,566.862 1253.77,567.402 1254.5,567.941 1255.23,568.481 1255.96,569.021 1256.69,569.56 1257.42,570.1 1258.15,570.639 1258.89,571.179 1259.62,571.718 1260.35,572.258 1261.08,572.798 1261.81,573.337 1262.54,573.877 1263.27,574.416 1264,574.956 1264.73,575.496 1265.46,576.035 1266.19,576.575 1266.93,577.114 1267.66,577.654 1268.39,578.193 1269.12,578.733 1269.85,579.273 1270.58,579.812 1271.31,580.352 1272.04,580.891 1272.77,581.431 1273.5,581.97 1274.23,582.51 1274.96,583.05 1275.69,583.589 1276.42,584.129 1277.15,584.668 1277.88,585.208 1278.61,585.748 1279.34,586.287 1280.07,586.827 1280.8,587.366 1281.53,587.906 1282.26,588.445 1282.99,588.985 1283.72,589.525 1284.45,590.064 1285.18,590.604 1285.9,591.143 1286.63,591.683 1287.36,592.223 1288.09,592.762 1288.82,593.302 1289.55,593.841 1290.28,594.381 1291.01,594.92 1291.74,595.46 1292.47,596 1293.19,596.539 1293.92,597.079 1294.65,597.618 1295.38,598.158 1296.11,598.698 1296.84,599.237 1297.57,599.777 1298.29,600.316 1299.02,600.856 1299.75,601.395 1300.48,601.935 1301.21,602.475 1301.94,603.014 1302.66,603.554 1303.39,604.093 1304.12,604.633 1304.85,605.173 1305.58,605.712 1306.3,606.252 1307.03,606.791 1307.76,607.331 1308.49,607.87 1309.21,608.41 1309.94,608.95 1310.67,609.489 1311.4,610.029 1312.12,610.568 1312.85,611.108 1313.58,611.648 1314.31,612.187 1315.03,612.727 1315.76,613.266 1316.49,613.806 1317.22,614.345 1317.94,614.885 1318.67,615.425 1319.4,615.964 1320.12,616.504 1320.85,617.043 1321.58,617.583 1322.3,618.123 1323.03,618.662 1323.76,619.202 1324.48,619.741 1325.21,620.281 1325.94,620.82 1326.66,621.36 1327.39,621.9 1328.11,622.439 1328.84,622.979 1329.57,623.518 1330.29,624.058 1331.02,624.598 1331.74,625.137 1332.47,625.677 1333.2,626.216 1333.92,626.756 1334.65,627.295 1335.37,627.835 1336.1,628.375 1336.82,628.914 1337.55,629.454 1338.28,629.993 1339,630.533 1339.73,631.073 1340.45,631.612 1341.18,632.152 1341.9,632.691 1342.63,633.231 1343.35,633.77 1344.08,634.31 1344.8,634.85 1345.53,635.389 1346.25,635.929 1346.98,636.468 1347.7,637.008 1348.43,637.548 1349.15,638.087 1349.87,638.627 1350.6,639.166 1351.32,639.706 1352.05,640.245 1352.77,640.785 1353.5,641.325 1354.22,641.864 1354.94,642.404 1355.67,642.943 1356.39,643.483 1357.12,644.023 1357.84,644.562 1358.56,645.102 1359.29,645.641 1360.01,646.181 1360.74,646.72 1361.46,647.26 1362.18,647.8 1362.91,648.339 1363.63,648.879 1364.35,649.418 1365.08,649.958 1365.8,650.497 1366.52,651.037 1367.25,651.577 1367.97,652.116 1368.69,652.656 1369.42,653.195 1370.14,653.735 1370.86,654.275 1371.58,654.814 1372.31,655.354 1373.03,655.893 1373.75,656.433 1374.47,656.972 1375.2,657.512 1375.92,658.052 1376.64,658.591 1377.36,659.131 1378.09,659.67 1378.81,660.21 1379.53,660.75 1380.25,661.289 1380.98,661.829 1381.7,662.368 1382.42,662.908 1383.14,663.447 1383.86,663.987 1384.58,664.527 1385.31,665.066 1386.03,665.606 1386.75,666.145 1387.47,666.685 1388.19,667.225 1388.91,667.764 1389.64,668.304 1390.36,668.843 1391.08,669.383 1391.8,669.922 1392.52,670.462 1393.24,671.002 1393.96,671.541 1394.68,672.081 1395.4,672.62 1396.13,673.16 1396.85,673.7 1397.57,674.239 1398.29,674.779 1399.01,675.318 1399.73,675.858 1400.45,676.397 1401.17,676.937 1401.89,677.477 1402.61,678.016 1403.33,678.556 1404.05,679.095 1404.77,679.635 1405.49,680.175 1406.21,680.714 1406.93,681.254 1407.65,681.793 1408.37,682.333 1409.09,682.872 1409.81,683.412 1410.53,683.952 1411.25,684.491 1411.97,685.031 1412.69,685.57 1413.41,686.11 1414.13,686.65 1414.85,687.189 1415.57,687.729 1416.28,688.268 1417,688.808 1417.72,689.347 1418.44,689.887 1419.16,690.427 1419.88,690.966 1420.6,691.506 1421.32,692.045 1422.04,692.585 1422.75,693.125 1423.47,693.664 1424.19,694.204 1424.91,694.743 1425.63,695.283 1426.35,695.822 1427.06,696.362 1427.78,696.902 1428.5,697.441 1429.22,697.981 1429.94,698.52 1430.66,699.06 1431.37,699.6 1432.09,700.139 1432.81,700.679 1433.53,701.218 1434.24,701.758 1434.96,702.297 1435.68,702.837 1436.4,703.377 1437.11,703.916 1437.83,704.456 1438.55,704.995 1439.27,705.535 1439.98,706.075 1440.7,706.614 1441.42,707.154 1442.13,707.693 1442.85,708.233 1443.57,708.772 1444.28,709.312 1445,709.852 1445.72,710.391 1446.43,710.931 1447.15,711.47 1447.87,712.01 1448.58,712.549 1449.3,713.089 1450.02,713.629 1450.73,714.168 1451.45,714.708 1452.16,715.247 1452.88,715.787 1453.6,716.327 1454.31,716.866 1455.03,717.406 1455.74,717.945 1456.46,718.485 1457.18,719.024 1457.89,719.564 1458.61,720.104 1459.32,720.643 1460.04,721.183 1460.75,721.722 1461.47,722.262 1462.18,722.802 1462.9,723.341 1463.61,723.881 1464.33,724.42 1465.04,724.96 1465.76,725.499 1466.47,726.039 1467.19,726.579 1467.9,727.118 1468.62,727.658 1469.33,728.197 1470.05,728.737 1470.76,729.277 1471.48,729.816 1472.19,730.356 1472.9,730.895 1473.62,731.435 1474.33,731.974 1475.05,732.514 1475.76,733.054 1476.48,733.593 1477.19,734.133 1477.9,734.672 1478.62,735.212 1479.33,735.752 1480.04,736.291 1480.76,736.831 1481.47,737.37 1482.18,737.91 1482.9,738.449 1483.61,738.989 1484.32,739.529 1485.04,740.068 1485.75,740.608 1486.46,741.147 1487.18,741.687 1487.89,742.227 1488.6,742.766 1489.32,743.306 1490.03,743.845 1490.74,744.385 1491.45,744.924 1492.17,745.464 1492.88,746.004 1493.59,746.543 1494.3,747.083 1495.02,747.622 1495.73,748.162 1496.44,748.702 1497.15,749.241 1497.87,749.781 1498.58,750.32 1499.29,750.86 1500,751.399 1500.71,751.939 1501.42,752.479 1502.14,753.018 1502.85,753.558 1503.56,754.097 1504.27,754.637 1504.98,755.177 1505.69,755.716 1506.4,756.256 1507.12,756.795 1507.83,757.335 1508.54,757.874 1509.25,758.414 1509.96,758.954 1510.67,759.493 1511.38,760.033 1512.09,760.572 1512.8,761.112 1513.51,761.652 1514.22,762.191 1514.94,762.731 1515.65,763.27 1516.36,763.81 1517.07,764.349 1517.78,764.889 1518.49,765.429 1519.2,765.968 1519.91,766.508 1520.62,767.047 1521.33,767.587 1522.04,768.127 1522.75,768.666 1523.46,769.206 1524.17,769.745 1524.88,770.285 1525.59,770.824 1526.29,771.364 1527,771.904 1527.71,772.443 1528.42,772.983 1529.13,773.522 1529.84,774.062 1530.55,774.602 1531.26,775.141 1531.97,775.681 1532.68,776.22 1533.39,776.76 1534.09,777.299 1534.8,777.839 1535.51,778.379 1536.22,778.918 1536.93,779.458 1537.64,779.997 1538.35,780.537 1539.05,781.076 1539.76,781.616 1540.47,782.156 1541.18,782.695 1541.89,783.235 1542.59,783.774 1543.3,784.314 1544.01,784.854 1544.72,785.393 1545.43,785.933 1546.13,786.472 1546.84,787.012 1547.55,787.551 1548.26,788.091 1548.96,788.631 1549.67,789.17 1550.38,789.71 1551.09,790.249 1551.79,790.789 1552.5,791.329 1553.21,791.868 1553.91,792.408 1554.62,792.947 1555.33,793.487 1556.03,794.026 1556.74,794.566 1557.45,795.106 1558.15,795.645 1558.86,796.185 1559.57,796.724 1560.27,797.264 1560.98,797.804 1561.69,798.343 1562.39,798.883 1563.1,799.422 1563.8,799.962 1564.51,800.501 1565.22,801.041 1565.92,801.581 1566.63,802.12 1567.33,802.66 1568.04,803.199 1568.74,803.739 1569.45,804.279 1570.15,804.818 1570.86,805.358 1571.57,805.897 1572.27,806.437 1572.98,806.976 1573.68,807.516 1574.39,808.056 1575.09,808.595 1575.8,809.135 1576.5,809.674 1577.2,810.214 1577.91,810.754 1578.61,811.293 1579.32,811.833 1580.02,812.372 1580.73,812.912 1581.43,813.451 1582.14,813.991 1582.84,814.531 1583.54,815.07 1584.25,815.61 1584.95,816.149 1585.66,816.689 1586.36,817.229 1587.06,817.768 1587.77,818.308 1588.47,818.847 1589.17,819.387 1589.88,819.926 1590.58,820.466 1591.29,821.006 1591.99,821.545 1592.69,822.085 1593.4,822.624 1594.1,823.164 1594.8,823.704 1595.5,824.243 1596.21,824.783 1596.91,825.322 1597.61,825.862 1598.32,826.401 1599.02,826.941 1599.72,827.481 1600.42,828.02 1601.13,828.56 1601.83,829.099 1602.53,829.639 1603.23,830.179 1603.93,830.718 1604.64,831.258 1605.34,831.797 1606.04,832.337 1606.74,832.876 1607.44,833.416 1608.15,833.956 1608.85,834.495 1609.55,835.035 1610.25,835.574 1610.95,836.114 1611.65,836.654 1612.36,837.193 1613.06,837.733 1613.76,838.272 1614.46,838.812 1615.16,839.351 1615.86,839.891 1616.56,840.431 1617.26,840.97 1617.96,841.51 1618.66,842.049 1619.37,842.589 1620.07,843.128 1620.77,843.668 1621.47,844.208 1622.17,844.747 1622.87,845.287 1623.57,845.826 1624.27,846.366 1624.97,846.906 1625.67,847.445 1626.37,847.985 1627.07,848.524 1627.77,849.064 1628.47,849.603 1629.17,850.143 1629.87,850.683 1630.57,851.222 1631.27,851.762 1631.97,852.301 1632.67,852.841 1633.36,853.381 1634.06,853.92 1634.76,854.46 1635.46,854.999 1636.16,855.539 1636.86,856.078 1637.56,856.618 1638.26,857.158 1638.96,857.697 1639.66,858.237 1640.35,858.776 1641.05,859.316 1641.75,859.856 1642.45,860.395 1643.15,860.935 1643.85,861.474 1644.54,862.014 1645.24,862.553 1645.94,863.093 1646.64,863.633 1647.34,864.172 1648.03,864.712 1648.73,865.251 1649.43,865.791 1650.13,866.331 1650.82,866.87 1651.52,867.41 1652.22,867.949 1652.92,868.489 1653.61,869.028 1654.31,869.568 1655.01,870.108 1655.71,870.647 1656.4,871.187 1657.1,871.726 1657.8,872.266 1658.49,872.806 1659.19,873.345 1659.89,873.885 1660.58,874.424 1661.28,874.964 1661.98,875.503 1662.67,876.043 1663.37,876.583 1664.07,877.122 1664.76,877.662 1665.46,878.201 1666.15,878.741 1666.85,879.281 1667.55,879.82 1668.24,880.36 1668.94,880.899 1669.63,881.439 1670.33,881.978 1671.02,882.518 1671.72,883.058 1672.42,883.597 1673.11,884.137 1673.81,884.676 1674.5,885.216 1675.2,885.756 1675.89,886.295 1676.59,886.835 1677.28,887.374 1677.98,887.914 1678.67,888.453 1679.37,888.993 1680.06,889.533 1680.76,890.072 1681.45,890.612 1682.14,891.151 1682.84,891.691 1683.53,892.231 1684.23,892.77 1684.92,893.31 1685.62,893.849 1686.31,894.389 1687,894.928 1687.7,895.468 1688.39,896.008 1689.09,896.547 1689.78,897.087 1690.47,897.626 1691.17,898.166 1691.86,898.706 1692.55,899.245 1693.25,899.785 1693.94,900.324 1694.63,900.864 1695.33,901.403 1696.02,901.943 1696.71,902.483 1697.41,903.022 1698.1,903.562 1698.79,904.101 1699.48,904.641 1700.18,905.181 1700.87,905.72 1701.56,906.26 1702.25,906.799 1702.95,907.339 1703.64,907.878 1704.33,908.418 1705.02,908.958 1705.71,909.497 1706.41,910.037 1707.1,910.576 1707.79,911.116 1708.48,911.655 1709.17,912.195 1709.87,912.735 1710.56,913.274 1711.25,913.814 1711.94,914.353 1712.63,914.893 1713.32,915.433 1714.01,915.972 1714.71,916.512 1715.4,917.051 1716.09,917.591 1716.78,918.13 1717.47,918.67 1718.16,919.21 1718.85,919.749 1719.54,920.289 1720.23,920.828 1720.92,921.368 1721.61,921.908 1722.3,922.447 1722.99,922.987 1723.68,923.526 1724.37,924.066 1725.06,924.605 1725.75,925.145 1726.44,925.685 1727.13,926.224 1727.82,926.764 1728.51,927.303 1729.2,927.843 1729.89,928.383 1730.58,928.922 1731.27,929.462 1731.96,930.001 1732.65,930.541 1733.34,931.08 1734.03,931.62 1734.72,932.16 1735.41,932.699 1736.1,933.239 1736.79,933.778 1737.47,934.318 1738.16,934.858 1738.85,935.397 1739.54,935.937 1740.23,936.476 1740.92,937.016 1741.61,937.555 1742.29,938.095 1742.98,938.635 1743.67,939.174 1744.36,939.714 1745.05,940.253 1745.74,940.793 1746.42,941.333 1747.11,941.872 1747.8,942.412 1748.49,942.951 1749.17,943.491 1749.86,944.03 1750.55,944.57 1751.24,945.11 1751.92,945.649 1752.61,946.189 1753.3,946.728 1753.99,947.268 1754.67,947.808 1755.36,948.347 1756.05,948.887 1756.73,949.426 1757.42,949.966 1758.11,950.505 1758.79,951.045 1759.48,951.585 1760.17,952.124 1760.85,952.664 1761.54,953.203 1762.23,953.743 1762.91,954.283 1763.6,954.822 1764.28,955.362 1764.97,955.901 1765.66,956.441 1766.34,956.98 1767.03,957.52 1767.71,958.06 1768.4,958.599 1769.08,959.139 1769.77,959.678 1770.46,960.218 1771.14,960.758 1771.83,961.297 1772.51,961.837 1773.2,962.376 1773.88,962.916 1774.57,963.455 1775.25,963.995 1775.94,964.535 1776.62,965.074 1777.31,965.614 1777.99,966.153 1778.68,966.693 1779.36,967.233 1780.04,967.772 1780.73,968.312 1781.41,968.851 1782.1,969.391 1782.78,969.93 1783.47,970.47 1784.15,971.01 1784.83,971.549 1785.52,972.089 1786.2,972.628 1786.88,973.168 1787.57,973.707 1788.25,974.247 1788.94,974.787 1789.62,975.326 1790.3,975.866 1790.99,976.405 1791.67,976.945 1792.35,977.485 1793.03,978.024 1793.72,978.564 1794.4,979.103 1795.08,979.643 1795.77,980.182 1796.45,980.722 1797.13,981.262 1797.81,981.801 1798.5,982.341 1799.18,982.88 1799.86,983.42 1800.54,983.96 1801.23,984.499 1801.91,985.039 1802.59,985.578 1803.27,986.118 1803.95,986.657 1804.64,987.197 1805.32,987.737 1806,988.276 1806.68,988.816 1807.36,989.355 1808.04,989.895 1808.73,990.435 1809.41,990.974 1810.09,991.514 1810.77,992.053 1811.45,992.593 1812.13,993.132 1812.81,993.672 1813.49,994.212 1814.17,994.751 1814.85,995.291 1815.54,995.83 1816.22,996.37 1816.9,996.91 1817.58,997.449 1818.26,997.989 1818.94,998.528 1819.62,999.068 1820.3,999.607 1820.98,1000.15 1821.66,1000.69 1822.34,1001.23 1823.02,1001.77 1823.7,1002.31 1824.38,1002.84 1825.06,1003.38 1825.74,1003.92 1826.42,1004.46 1827.1,1005 1827.78,1005.54 1828.46,1006.08 1829.13,1006.62 1829.81,1007.16 1830.49,1007.7 1831.17,1008.24 1831.85,1008.78 1832.53,1009.32 1833.21,1009.86 1833.89,1010.4 1834.57,1010.94 1835.24,1011.48 1835.92,1012.02 1836.6,1012.56 1837.28,1013.1 1837.96,1013.64 1838.64,1014.18 1839.31,1014.72 1839.99,1015.26 1840.67,1015.79 1841.35,1016.33 1842.03,1016.87 1842.7,1017.41 1843.38,1017.95 1844.06,1018.49 1844.74,1019.03 1845.41,1019.57 1846.09,1020.11 1846.77,1020.65 1847.45,1021.19 1848.12,1021.73 1848.8,1022.27 1849.48,1022.81 1850.16,1023.35 1850.83,1023.89 1851.51,1024.43 1852.19,1024.97 1852.86,1025.51 1853.54,1026.05 1854.22,1026.59 1854.89,1027.13 1855.57,1027.67 1856.25,1028.21 1856.92,1028.74 1857.6,1029.28 1858.27,1029.82 1858.95,1030.36 1859.63,1030.9 1860.3,1031.44 1860.98,1031.98 1861.65,1032.52 1862.33,1033.06 1863,1033.6 1863.68,1034.14 1864.36,1034.68 1865.03,1035.22 1865.71,1035.76 1866.38,1036.3 1867.06,1036.84 1867.73,1037.38 1868.41,1037.92 1869.08,1038.46 1869.76,1039 1870.43,1039.54 1871.11,1040.08 1871.78,1040.62 1872.46,1041.16 1873.13,1041.69 1873.81,1042.23 1874.48,1042.77 1875.15,1043.31 1875.83,1043.85 1876.5,1044.39 1877.18,1044.93 1877.85,1045.47 1878.52,1046.01 1879.2,1046.55 1879.87,1047.09 1880.55,1047.63 1881.22,1048.17 1881.89,1048.71 1882.57,1049.25 1883.24,1049.79 1883.91,1050.33 1884.59,1050.87 1885.26,1051.41 1885.93,1051.95 1886.61,1052.49 1887.28,1053.03 1887.95,1053.57 1888.63,1054.11 1889.3,1054.64 1889.97,1055.18 1890.64,1055.72 1891.32,1056.26 1891.99,1056.8 1892.66,1057.34 1893.33,1057.88 1894.01,1058.42 1894.68,1058.96 1895.35,1059.5 1896.02,1060.04 1896.69,1060.58 1897.37,1061.12 1898.04,1061.66 1898.71,1062.2 1899.38,1062.74 1900.05,1063.28 1900.72,1063.82 1901.4,1064.36 1902.07,1064.9 1902.74,1065.44 1903.41,1065.98 1904.08,1066.52 1904.75,1067.06 1905.42,1067.59 1906.09,1068.13 1906.77,1068.67 1907.44,1069.21 1908.11,1069.75 1908.78,1070.29 1909.45,1070.83 1910.12,1071.37 1910.79,1071.91 1911.46,1072.45 1912.13,1072.99 1912.8,1073.53 1913.47,1074.07 1914.14,1074.61 1914.81,1075.15 1915.48,1075.69 1916.15,1076.23 1916.82,1076.77 1917.49,1077.31 1918.16,1077.85 1918.83,1078.39 1919.5,1078.93 1920.17,1079.47 1920.84,1080.01 1921.51,1080.54 1922.18,1081.08 1922.84,1081.62 1923.51,1082.16 1924.18,1082.7 1924.85,1083.24 1925.52,1083.78 1926.19,1084.32 1926.86,1084.86 1927.53,1085.4 1928.2,1085.94 1928.86,1086.48 1929.53,1087.02 1930.2,1087.56 1930.87,1088.1 1931.54,1088.64 1932.21,1089.18 1932.87,1089.72 1933.54,1090.26 1934.21,1090.8 1934.88,1091.34 1935.54,1091.88 1936.21,1092.42 1936.88,1092.96 1937.55,1093.49 1938.22,1094.03 1938.88,1094.57 1939.55,1095.11 1940.22,1095.65 1940.88,1096.19 1941.55,1096.73 1942.22,1097.27 1942.89,1097.81 1943.55,1098.35 1944.22,1098.89 1944.89,1099.43 1945.55,1099.97 1946.22,1100.51 1946.89,1101.05 1947.55,1101.59 1948.22,1102.13 1948.88,1102.67 1949.55,1103.21 1950.22,1103.75 1950.88,1104.29 1951.55,1104.83 1952.21,1105.37 1952.88,1105.91 1953.55,1106.44 1954.21,1106.98 1954.88,1107.52 1955.54,1108.06 1956.21,1108.6 1956.87,1109.14 1957.54,1109.68 1958.2,1110.22 1958.87,1110.76 1959.54,1111.3 1960.2,1111.84 1960.87,1112.38 1961.53,1112.92 1962.2,1113.46 1962.86,1114 1963.52,1114.54 1964.19,1115.08 1964.85,1115.62 1965.52,1116.16 1966.18,1116.7 1966.85,1117.24 1967.51,1117.78 1968.18,1118.32 1968.84,1118.86 1969.5,1119.39 1970.17,1119.93 1970.83,1120.47 1971.49,1121.01 1972.16,1121.55 1972.82,1122.09 1973.49,1122.63 1974.15,1123.17 1974.81,1123.71 1975.48,1124.25 1976.14,1124.79 1976.8,1125.33 1977.47,1125.87 1978.13,1126.41 1978.79,1126.95 1979.45,1127.49 1980.12,1128.03 1980.78,1128.57 1981.44,1129.11 1982.11,1129.65 1982.77,1130.19 1983.43,1130.73 1984.09,1131.27 1984.76,1131.81 1985.42,1132.34 1986.08,1132.88 1986.74,1133.42 1987.4,1133.96 1988.07,1134.5 1988.73,1135.04 1989.39,1135.58 1990.05,1136.12 1990.71,1136.66 1991.37,1137.2 1992.04,1137.74 1992.7,1138.28 1993.36,1138.82 1994.02,1139.36 1994.68,1139.9 1995.34,1140.44 1996,1140.98 1996.66,1141.52 1997.33,1142.06 1997.99,1142.6 1998.65,1143.14 1999.31,1143.68 1999.97,1144.22 2000.63,1144.76 2001.29,1145.29 2001.95,1145.83 2002.61,1146.37 2003.27,1146.91 2003.93,1147.45 2004.59,1147.99 2005.25,1148.53 2005.91,1149.07 2006.57,1149.61 2007.23,1150.15 2007.89,1150.69 2008.55,1151.23 2009.21,1151.77 2009.87,1152.31 2010.53,1152.85 2011.19,1153.39 2011.85,1153.93 2012.51,1154.47 2013.17,1155.01 2013.83,1155.55 2014.48,1156.09 2015.14,1156.63 2015.8,1157.17 2016.46,1157.71 2017.12,1158.24 2017.78,1158.78 2018.44,1159.32 2019.1,1159.86 2019.75,1160.4 2020.41,1160.94 2021.07,1161.48 2021.73,1162.02 2022.39,1162.56 2023.04,1163.1 2023.7,1163.64 2024.36,1164.18 2025.02,1164.72 2025.68,1165.26 2026.33,1165.8 2026.99,1166.34 2027.65,1166.88 2028.31,1167.42 2028.96,1167.96 2029.62,1168.5 2030.28,1169.04 2030.94,1169.58 2031.59,1170.12 2032.25,1170.66 2032.91,1171.19 2033.56,1171.73 2034.22,1172.27 2034.88,1172.81 2035.53,1173.35 2036.19,1173.89 2036.85,1174.43 2037.5,1174.97 2038.16,1175.51 2038.82,1176.05 2039.47,1176.59 2040.13,1177.13 2040.78,1177.67 2041.44,1178.21 2042.1,1178.75 2042.75,1179.29 2043.41,1179.83 2044.06,1180.37 2044.72,1180.91 2045.38,1181.45 2046.03,1181.99 2046.69,1182.53 2047.34,1183.07 2048,1183.61 2048.65,1184.14 2049.31,1184.68 2049.96,1185.22 2050.62,1185.76 2051.27,1186.3 2051.93,1186.84 2052.58,1187.38 2053.24,1187.92 2053.89,1188.46 2054.55,1189 2055.2,1189.54 2055.85,1190.08 2056.51,1190.62 2057.16,1191.16 2057.82,1191.7 2058.47,1192.24 2059.12,1192.78 2059.78,1193.32 2060.43,1193.86 2061.09,1194.4 2061.74,1194.94 2062.39,1195.48 2063.05,1196.02 2063.7,1196.56 2064.35,1197.09 2065.01,1197.63 2065.66,1198.17 2066.31,1198.71 2066.97,1199.25 2067.62,1199.79 2068.27,1200.33 2068.93,1200.87 2069.58,1201.41 2070.23,1201.95 2070.88,1202.49 2071.54,1203.03 2072.19,1203.57 2072.84,1204.11 2073.49,1204.65 2074.15,1205.19 2074.8,1205.73 2075.45,1206.27 2076.1,1206.81 2076.76,1207.35 2077.41,1207.89 2078.06,1208.43 2078.71,1208.97 2079.36,1209.51 2080.01,1210.04 2080.67,1210.58 2081.32,1211.12 2081.97,1211.66 2082.62,1212.2 2083.27,1212.74 2083.92,1213.28 2084.57,1213.82 2085.22,1214.36 2085.88,1214.9 2086.53,1215.44 2087.18,1215.98 2087.83,1216.52 2088.48,1217.06 2089.13,1217.6 2089.78,1218.14 2090.43,1218.68 2091.08,1219.22 2091.73,1219.76 2092.38,1220.3 2093.03,1220.84 2093.68,1221.38 2094.33,1221.92 2094.98,1222.46 2095.63,1222.99 2096.28,1223.53 2096.93,1224.07 2097.58,1224.61 2098.23,1225.15 2098.88,1225.69 2099.53,1226.23 2100.18,1226.77 2100.83,1227.31 2101.48,1227.85 2102.13,1228.39 2102.78,1228.93 2103.42,1229.47 2104.07,1230.01 2104.72,1230.55 2105.37,1231.09 2106.02,1231.63 2106.67,1232.17 2107.32,1232.71 2107.97,1233.25 2108.61,1233.79 2109.26,1234.33 2109.91,1234.87 2110.56,1235.41 2111.21,1235.94 2111.85,1236.48 2112.5,1237.02 2113.15,1237.56 2113.8,1238.1 2114.45,1238.64 2115.09,1239.18 2115.74,1239.72 2116.39,1240.26 2117.04,1240.8 2117.68,1241.34 2118.33,1241.88 2118.98,1242.42 2119.63,1242.96 2120.27,1243.5 2120.92,1244.04 2121.57,1244.58 2122.21,1245.12 2122.86,1245.66 2123.51,1246.2 2124.15,1246.74 2124.8,1247.28 2125.45,1247.82 2126.09,1248.36 2126.74,1248.89 2127.39,1249.43 2128.03,1249.97 2128.68,1250.51 2129.32,1251.05 2129.97,1251.59 2130.62,1252.13 2131.26,1252.67 2131.91,1253.21 2132.55,1253.75 2133.2,1254.29 2133.84,1254.83 2134.49,1255.37 2135.13,1255.91 2135.78,1256.45 2136.43,1256.99 2137.07,1257.53 2137.72,1258.07 2138.36,1258.61 2139.01,1259.15 2139.65,1259.69 2140.29,1260.23 2140.94,1260.77 2141.58,1261.31 2142.23,1261.84 2142.87,1262.38 2143.52,1262.92 2144.16,1263.46 2144.81,1264 2145.45,1264.54 2146.09,1265.08 2146.74,1265.62 2147.38,1266.16 2148.03,1266.7 2148.67,1267.24 2149.31,1267.78 2149.96,1268.32 2150.6,1268.86 2151.25,1269.4 2151.89,1269.94 2152.53,1270.48 2153.18,1271.02 2153.82,1271.56 2154.46,1272.1 2155.1,1272.64 2155.75,1273.18 2156.39,1273.72 2157.03,1274.26 2157.68,1274.79 2158.32,1275.33 2158.96,1275.87 2159.6,1276.41 2160.25,1276.95 2160.89,1277.49 2161.53,1278.03 2162.17,1278.57 2162.82,1279.11 2163.46,1279.65 2164.1,1280.19 2164.74,1280.73 2165.38,1281.27 2166.03,1281.81 2166.67,1282.35 2167.31,1282.89 2167.35,1283.43 2167.39,1283.97 2167.43,1284.51 2167.47,1285.05 2167.52,1285.59 2167.56,1286.13 2167.6,1286.67 2167.64,1287.21 2167.69,1287.74 2167.73,1288.28 2167.77,1288.82 2167.81,1289.36 2167.86,1289.9 2167.9,1290.44 2167.94,1290.98 2167.98,1291.52 2168.03,1292.06 2168.07,1292.6 2168.11,1293.14 2168.15,1293.68 2168.19,1294.22 2168.24,1294.76 2168.28,1295.3 2168.32,1295.84 2168.36,1296.38 2168.41,1296.92 2168.45,1297.46 2168.49,1298 2168.53,1298.54 2168.58,1299.08 2168.62,1299.62 2168.66,1300.15 2168.7,1300.69 2168.75,1301.23 2168.79,1301.77 2168.83,1302.31 2168.87,1302.85 2168.92,1303.39 2168.96,1303.93 2169,1304.47 2169.04,1305.01 2169.08,1305.55 2169.13,1306.09 2169.17,1306.63 2169.21,1307.17 2169.25,1307.71 2169.3,1308.25 2169.34,1308.79 2169.38,1309.33 2169.42,1309.87 2169.47,1310.41 2169.51,1310.95 2169.55,1311.49 2169.59,1312.03 2169.64,1312.57 2169.68,1313.1 2169.72,1313.64 2169.76,1314.18 2169.81,1314.72 2169.85,1315.26 2169.89,1315.8 2169.93,1316.34 2169.97,1316.88 2170.02,1317.42 2170.06,1317.96 2170.1,1318.5 2170.14,1319.04 2170.19,1319.58 2170.23,1320.12 2170.27,1320.66 2170.31,1321.2 2170.36,1321.74 2170.4,1322.28 2170.44,1322.82 2170.48,1323.36 2170.53,1323.9 2170.57,1324.44 2170.61,1324.98 2170.65,1325.52 2170.69,1326.05 2170.74,1326.59 2170.78,1327.13 2170.82,1327.67 2170.86,1328.21 2170.91,1328.75 2170.95,1329.29 2170.99,1329.83 2171.03,1330.37 2171.08,1330.91 2171.12,1331.45 2171.16,1331.99 2171.2,1332.53 2171.25,1333.07 2171.29,1333.61 2171.33,1334.15 2171.37,1334.69 2171.42,1335.23 2171.46,1335.77 2171.5,1336.31 2171.54,1336.85 2171.58,1337.39 2171.63,1337.93 2171.67,1338.47 2171.71,1339 2171.75,1339.54 2171.8,1340.08 2171.84,1340.62 2171.88,1341.16 2171.92,1341.7 2171.97,1342.24 2172.01,1342.78 2172.05,1343.32 2172.09,1343.86 2172.14,1344.4 2172.18,1344.94 2172.22,1345.48 2172.26,1346.02 2172.31,1346.56 2172.35,1347.1 2172.39,1347.64 2172.43,1348.18 2172.47,1348.72 2172.52,1349.26 2172.56,1349.8 2172.6,1350.34 2172.64,1350.88 2172.69,1351.42 2172.73,1351.95 2172.77,1352.49 2172.81,1353.03 2172.86,1353.57 2172.9,1354.11 2172.94,1354.65 2172.98,1355.19 2173.03,1355.73 2173.07,1356.27 2173.11,1356.81 2173.15,1357.35 2173.19,1357.89 2173.24,1358.43 2173.28,1358.97 2173.32,1359.51 2173.36,1360.05 2173.41,1360.59 2173.45,1361.13 2173.49,1361.67 2173.53,1362.21 2173.58,1362.75 2173.62,1363.29 2173.66,1363.83 2173.7,1364.37 2173.75,1364.9 2173.79,1365.44 2173.83,1365.98 2173.87,1366.52 2173.92,1367.06 2173.96,1367.6 2174,1368.14 2174.04,1368.68 2174.08,1369.22 2174.13,1369.76 2174.17,1370.3 2174.21,1370.84 2174.25,1371.38 2174.3,1371.92 2174.34,1372.46 2174.38,1373 2174.42,1373.54 2174.47,1374.08 2174.51,1374.62 2174.55,1375.16 2174.59,1375.7 2174.64,1376.24 2174.68,1376.78 2174.72,1377.32 2174.76,1377.85 2174.81,1378.39 2174.85,1378.93 2174.89,1379.47 2174.93,1380.01 2174.97,1380.55 2175.02,1381.09 2175.06,1381.63 2175.1,1382.17 2175.14,1382.71 2175.19,1383.25 2175.23,1383.79 2175.27,1384.33 2175.31,1384.87 2175.36,1385.41 2175.4,1385.95 2175.44,1386.49 2175.48,1387.03 2175.53,1387.57 2175.57,1388.11 2175.61,1388.65 2175.65,1389.19 2175.69,1389.73 2175.74,1390.27 2175.78,1390.8 2175.82,1391.34 2175.86,1391.88 2175.91,1392.42 2175.95,1392.96 2175.99,1393.5 2176.03,1394.04 2176.08,1394.58 2176.12,1395.12 2176.16,1395.66 2176.2,1396.2 2176.25,1396.74 2176.29,1397.28 2176.33,1397.82 2176.37,1398.36 2176.42,1398.9 2176.46,1399.44 2176.5,1399.98 2176.54,1400.52 2176.58,1401.06 2176.63,1401.6 2176.67,1402.14 2176.71,1402.68 2176.75,1403.22 2176.8,1403.75 2176.84,1404.29 2176.88,1404.83 2176.92,1405.37 2176.97,1405.91 2177.01,1406.45 2177.05,1406.99 2177.09,1407.53 2177.14,1408.07 2177.18,1408.61 2177.22,1409.15 2177.26,1409.69 2177.31,1410.23 2177.35,1410.77 2177.39,1411.31 2177.43,1411.85 2177.47,1412.39 2177.52,1412.93 2177.56,1413.47 2177.6,1414.01 2177.64,1414.55 2177.69,1415.09 2177.73,1415.63 2177.77,1416.17 2177.81,1416.7 2177.86,1417.24 2177.9,1417.78 2177.94,1418.32 2177.98,1418.86 2178.03,1419.4 2178.07,1419.94 2178.11,1420.48 2178.15,1421.02 2178.19,1421.56 2178.24,1422.1 2178.28,1422.64 2178.32,1423.18 "
     id="polyline105" />
  <circle
     clip-path="url(#clip342)"
     cx="1367.29"
     cy="480.617"
     r="14.4"
     fill="#009af9"
     fill-rule="evenodd"
     fill-opacity="1"
     stroke="#000000"
     stroke-opacity="1"
     stroke-width="0.232333"
     id="circle97"
     transform="matrix(13.773344,0,0,13.773344,-17512.011,-6381.4349)"
     style="stroke:none;fill:#8ed4ff;fill-opacity:1" />
  <circle
     clip-path="url(#clip342)"
     cx="1367.29"
     cy="480.617"
     r="14.4"
     fill="#009af9"
     fill-rule="evenodd"
     fill-opacity="1"
     stroke="#000000"
     stroke-opacity="1"
     stroke-width="0.232333"
     id="circle141"
     transform="matrix(13.773344,0,0,13.773344,-17613.545,-5610.7631)"
     style="stroke:none;fill:#8ed4ff;fill-opacity:1" />
  <circle
     clip-path="url(#clip342)"
     cx="1367.29"
     cy="480.617"
     r="14.4"
     fill="#009af9"
     fill-rule="evenodd"
     fill-opacity="1"
     stroke="#000000"
     stroke-opacity="1"
     stroke-width="0.232333"
     id="circle142"
     transform="matrix(13.773344,0,0,13.773344,-16685.872,-5722.9596)"
     style="stroke:none;fill:#8ed4ff;fill-opacity:1" />
  <polyline
     clip-path="url(#clip340)"
     style="stroke:#fefefe;stroke-linecap:round;stroke-linejoin:round;stroke-width:120;stroke-opacity:1;fill:none;stroke-dasharray:none"
     points="234.125,1423.18 2352.76,1423.18 "
     id="polyline7" />
  <polyline
     clip-path="url(#clip340)"
     style="stroke:#fefefe;stroke-linecap:round;stroke-linejoin:round;stroke-width:120;stroke-opacity:1;fill:#41b85a;stroke-dasharray:none;fill-opacity:0.55023235"
     points="234.125,47.2441 234.125,1423.18 "
     id="polyline41" />
</svg>
